<svg width="19" height="20" viewBox="0 0 19 20" fill="none" xmlns="http://www.w3.org/2000/svg">
<g clip-path="url(#clip0_1519_17147)">
<path d="M18.05 1H15.2V0H3.8V1H0.95C0.38 1 0 1.4 0 2V4.4C0 6.7 1.615 8.6 3.8 8.9V9C3.8 11.9 5.7 14.3 8.265 14.9L7.6 17H5.415C5.035 17 4.655 17.3 4.56 17.7L3.8 20H15.2L14.44 17.7C14.345 17.3 13.965 17 13.585 17H11.4L10.735 14.9C13.3 14.3 15.2 11.9 15.2 9V8.9C17.385 8.6 19 6.7 19 4.4V2C19 1.4 18.62 1 18.05 1ZM3.8 6.9C2.755 6.6 1.9 5.6 1.9 4.4V3H3.8V6.9ZM11.4 10L9.5 8.9L7.6 10L8.075 8L6.65 6H8.645L9.5 4L10.355 6H12.35L10.925 8L11.4 10ZM17.1 4.4C17.1 5.6 16.245 6.7 15.2 6.9V3H17.1V4.4Z" fill="#0C081E"/>
</g>
<defs>
<clipPath id="clip0_1519_17147">
<rect width="19" height="20" fill="white"/>
</clipPath>
</defs>
</svg>
