<?xml version="1.0" encoding="UTF-8"?>
<svg xmlns="http://www.w3.org/2000/svg" width="361" height="115" viewBox="0 0 361 115" fill="none">
  <path d="M60.0041 12H59.9959C57.2367 12 55 14.2604 55 17.0486V28.9514C55 31.7396 57.2367 34 59.9959 34H60.0041C62.7633 34 65 31.7396 65 28.9514V17.0486C65 14.2604 62.7633 12 60.0041 12Z" fill="#F4A034"></path>
  <path d="M60.0041 39H59.9959C57.2367 39 55 41.1703 55 43.8475V59.1525C55 61.8297 57.2367 64 59.9959 64H60.0041C62.7633 64 65 61.8297 65 59.1525V43.8475C65 41.1703 62.7633 39 60.0041 39Z" fill="#F4A034"></path>
  <path d="M60.0041 69H59.9959C57.2367 69 55 71.2629 55 74.0544V83.9456C55 86.7371 57.2367 89 59.9959 89H60.0041C62.7633 89 65 86.7371 65 83.9456V74.0544C65 71.2629 62.7633 69 60.0041 69Z" fill="#45BF5F"></path>
  <path d="M60.0041 93H59.9959C57.2367 93 55 95.2604 55 98.0486V109.951C55 112.74 57.2367 115 59.9959 115H60.0041C62.7633 115 65 112.74 65 109.951V98.0486C65 95.2604 62.7633 93 60.0041 93Z" fill="#F4A034"></path>
  <path d="M78.0041 30H77.9959C75.2367 30 73 32.2512 73 35.0281V48.9719C73 51.7488 75.2367 54 77.9959 54H78.0041C80.7633 54 83 51.7488 83 48.9719V35.0281C83 32.2512 80.7633 30 78.0041 30Z" fill="#45BF5F"></path>
  <path d="M78.0041 58H77.9959C75.2367 58 73 60.2604 73 63.0486V74.9514C73 77.7396 75.2367 80 77.9959 80H78.0041C80.7633 80 83 77.7396 83 74.9514V63.0486C83 60.2604 80.7633 58 78.0041 58Z" fill="#45BF5F"></path>
  <path d="M78.0041 84H77.9959C75.2367 84 73 86.2917 73 89.1186V100.881C73 103.708 75.2367 106 77.9959 106H78.0041C80.7633 106 83 103.708 83 100.881V89.1186C83 86.2917 80.7633 84 78.0041 84Z" fill="#45BF5F"></path>
  <path d="M78.0041 8H77.9959C75.2367 8 73 10.1573 73 12.8184V20.1816C73 22.8427 75.2367 25 77.9959 25H78.0041C80.7633 25 83 22.8427 83 20.1816V12.8184C83 10.1573 80.7633 8 78.0041 8Z" fill="#F4A034"></path>
  <path d="M95.0041 79H94.9959C92.2367 79 90 81.3232 90 84.189V88.811C90 91.6768 92.2367 94 94.9959 94H95.0041C97.7633 94 100 91.6768 100 88.811V84.189C100 81.3232 97.7633 79 95.0041 79Z" fill="#F4A034"></path>
  <path d="M95.0041 60H94.9959C92.2367 60 90 62.3113 90 65.1624V69.8376C90 72.6887 92.2367 75 94.9959 75H95.0041C97.7633 75 100 72.6887 100 69.8376V65.1624C100 62.3113 97.7633 60 95.0041 60Z" fill="#45BF5F"></path>
  <path d="M95.0041 41H94.9959C92.2367 41 90 43.3113 90 46.1624V50.8376C90 53.6887 92.2367 56 94.9959 56H95.0041C97.7633 56 100 53.6887 100 50.8376V46.1624C100 43.3113 97.7633 41 95.0041 41Z" fill="#8F5ACC"></path>
  <path d="M95.0041 20H94.9959C92.2367 20 90 22.3241 90 25.1911V31.8089C90 34.6759 92.2367 37 94.9959 37H95.0041C97.7633 37 100 34.6759 100 31.8089V25.1911C100 22.3241 97.7633 20 95.0041 20Z" fill="#8F5ACC"></path>
  <path d="M95.0041 3H94.9959C92.2367 3 90 5.18216 90 7.87399V11.126C90 13.8178 92.2367 16 94.9959 16H95.0041C97.7633 16 100 13.8178 100 11.126V7.87399C100 5.18216 97.7633 3 95.0041 3Z" fill="#8F5ACC"></path>
  <path d="M112.004 73H111.996C109.237 73 107 75.2367 107 77.9959V78.0041C107 80.7633 109.237 83 111.996 83H112.004C114.763 83 117 80.7633 117 78.0041V77.9959C117 75.2367 114.763 73 112.004 73Z" fill="#8F5ACC"></path>
  <path d="M112.004 58H111.996C109.237 58 107 60.2367 107 62.9959V63.0041C107 65.7633 109.237 68 111.996 68H112.004C114.763 68 117 65.7633 117 63.0041V62.9959C117 60.2367 114.763 58 112.004 58Z" fill="#F4A034"></path>
  <path d="M112.004 44H111.996C109.237 44 107 46.2367 107 48.9959V49.0041C107 51.7633 109.237 54 111.996 54H112.004C114.763 54 117 51.7633 117 49.0041V48.9959C117 46.2367 114.763 44 112.004 44Z" fill="#8F5ACC"></path>
  <path d="M112.004 29H111.996C109.237 29 107 31.2367 107 33.9959V34.0041C107 36.7633 109.237 39 111.996 39H112.004C114.763 39 117 36.7633 117 34.0041V33.9959C117 31.2367 114.763 29 112.004 29Z" fill="#8F5ACC"></path>
  <path d="M112.004 15H111.996C109.237 15 107 17.2367 107 19.9959V20.0041C107 22.7633 109.237 25 111.996 25H112.004C114.763 25 117 22.7633 117 20.0041V19.9959C117 17.2367 114.763 15 112.004 15Z" fill="#8F5ACC"></path>
  <path d="M112.004 0H111.996C109.237 0 107 2.23672 107 4.99586V5.00414C107 7.76328 109.237 10 111.996 10H112.004C114.763 10 117 7.76328 117 5.00414V4.99586C117 2.23672 114.763 0 112.004 0Z" fill="#8F5ACC"></path>
  <path d="M40.0041 30H39.9959C37.2367 30 35 32.2512 35 35.0281V48.9719C35 51.7488 37.2367 54 39.9959 54H40.0041C42.7633 54 45 51.7488 45 48.9719V35.0281C45 32.2512 42.7633 30 40.0041 30Z" fill="#F4A034"></path>
  <path d="M40.0041 58H39.9959C37.2367 58 35 60.2604 35 63.0486V74.9514C35 77.7396 37.2367 80 39.9959 80H40.0041C42.7633 80 45 77.7396 45 74.9514V63.0486C45 60.2604 42.7633 58 40.0041 58Z" fill="#45BF5F"></path>
  <path d="M40.0041 84H39.9959C37.2367 84 35 86.2917 35 89.1186V100.881C35 103.708 37.2367 106 39.9959 106H40.0041C42.7633 106 45 103.708 45 100.881V89.1186C45 86.2917 42.7633 84 40.0041 84Z" fill="#F4A034"></path>
  <path d="M40.0041 8H39.9959C37.2367 8 35 10.1573 35 12.8184V20.1816C35 22.8427 37.2367 25 39.9959 25H40.0041C42.7633 25 45 22.8427 45 20.1816V12.8184C45 10.1573 42.7633 8 40.0041 8Z" fill="#F4A034"></path>
  <path d="M22.0041 79H21.9959C19.2367 79 17 81.3232 17 84.189V88.811C17 91.6768 19.2367 94 21.9959 94H22.0041C24.7633 94 27 91.6768 27 88.811V84.189C27 81.3232 24.7633 79 22.0041 79Z" fill="#8F5ACC"></path>
  <path d="M22.0041 60H21.9959C19.2367 60 17 62.3113 17 65.1624V69.8376C17 72.6887 19.2367 75 21.9959 75H22.0041C24.7633 75 27 72.6887 27 69.8376V65.1624C27 62.3113 24.7633 60 22.0041 60Z" fill="#45BF5F"></path>
  <path d="M22.0041 41H21.9959C19.2367 41 17 43.3113 17 46.1624V50.8376C17 53.6887 19.2367 56 21.9959 56H22.0041C24.7633 56 27 53.6887 27 50.8376V46.1624C27 43.3113 24.7633 41 22.0041 41Z" fill="#45BF5F"></path>
  <path d="M22.0041 20H21.9959C19.2367 20 17 22.3241 17 25.1911V31.8089C17 34.6759 19.2367 37 21.9959 37H22.0041C24.7633 37 27 34.6759 27 31.8089V25.1911C27 22.3241 24.7633 20 22.0041 20Z" fill="#8F5ACC"></path>
  <path d="M22.0041 3H21.9959C19.2367 3 17 5.18216 17 7.87399V11.126C17 13.8178 19.2367 16 21.9959 16H22.0041C24.7633 16 27 13.8178 27 11.126V7.87399C27 5.18216 24.7633 3 22.0041 3Z" fill="#F4A034"></path>
  <path d="M5.00414 73H4.99586C2.23672 73 0 75.2367 0 77.9959V78.0041C0 80.7633 2.23672 83 4.99586 83H5.00414C7.76328 83 10 80.7633 10 78.0041V77.9959C10 75.2367 7.76328 73 5.00414 73Z" fill="#F4A034"></path>
  <path d="M5.00414 58H4.99586C2.23672 58 0 60.2367 0 62.9959V63.0041C0 65.7633 2.23672 68 4.99586 68H5.00414C7.76328 68 10 65.7633 10 63.0041V62.9959C10 60.2367 7.76328 58 5.00414 58Z" fill="#F4A034"></path>
  <path d="M5.00414 44H4.99586C2.23672 44 0 46.2367 0 48.9959V49.0041C0 51.7633 2.23672 54 4.99586 54H5.00414C7.76328 54 10 51.7633 10 49.0041V48.9959C10 46.2367 7.76328 44 5.00414 44Z" fill="#45BF5F"></path>
  <path d="M5.00414 29H4.99586C2.23672 29 0 31.2367 0 33.9959V34.0041C0 36.7633 2.23672 39 4.99586 39H5.00414C7.76328 39 10 36.7633 10 34.0041V33.9959C10 31.2367 7.76328 29 5.00414 29Z" fill="#8F5ACC"></path>
  <path d="M5.00414 15H4.99586C2.23672 15 0 17.2367 0 19.9959V20.0041C0 22.7633 2.23672 25 4.99586 25H5.00414C7.76328 25 10 22.7633 10 20.0041V19.9959C10 17.2367 7.76328 15 5.00414 15Z" fill="#F4A034"></path>
  <path d="M5.00414 0H4.99586C2.23672 0 0 2.23672 0 4.99586V5.00414C0 7.76328 2.23672 10 4.99586 10H5.00414C7.76328 10 10 7.76328 10 5.00414V4.99586C10 2.23672 7.76328 0 5.00414 0Z" fill="#F4A034"></path>
  <path d="M161.045 53.2418C161.045 48.0037 161.045 37.5275 161.045 21.8132C159.213 21.8132 155.531 21.8132 150 21.8132C150 20.8242 150 18.8462 150 15.8791C154.835 15.8791 164.525 15.8791 179.067 15.8791C179.067 16.8681 179.067 18.8462 179.067 21.8132C177.199 21.8132 173.481 21.8132 167.913 21.8132C167.913 27.0513 167.913 37.5275 167.913 53.2418C166.777 53.2418 164.488 53.2418 161.045 53.2418Z" fill="#F9F9F9"></path>
  <path d="M191.651 34.3407C193.152 34.3407 196.156 34.3407 200.662 34.3407C201.578 34.3407 202.42 34.1941 203.19 33.9011C203.959 33.6081 204.637 33.1868 205.223 32.6374C205.772 32.0879 206.212 31.4286 206.541 30.6593C206.871 29.8901 207.036 29.0476 207.036 28.1319C207.036 27.1795 206.871 26.3187 206.541 25.5495C206.212 24.7802 205.772 24.1209 205.223 23.5714C204.637 22.9853 203.959 22.5458 203.19 22.2527C202.384 21.9597 201.541 21.8132 200.662 21.8132C198.647 21.8132 195.643 21.8132 191.651 21.8132C191.651 23.9011 191.651 28.0769 191.651 34.3407ZM214.729 53.2418C213.41 53.2418 210.791 53.2418 206.871 53.2418C205.662 51.0806 203.226 46.7582 199.563 40.2747C198.244 40.2747 195.607 40.2747 191.651 40.2747C191.651 42.4359 191.651 46.7582 191.651 53.2418C190.478 53.2418 188.189 53.2418 184.782 53.2418C184.782 47.0147 184.782 34.5604 184.782 15.8791C187.456 15.8791 192.823 15.8791 200.882 15.8791C202.787 15.8791 204.527 16.1722 206.102 16.7582C207.714 17.3443 209.087 18.1685 210.223 19.2308C211.359 20.3297 212.256 21.63 212.915 23.1319C213.538 24.5971 213.849 26.2454 213.849 28.0769C213.849 29.4322 213.685 30.696 213.355 31.8681C212.989 33.0769 212.494 34.1392 211.871 35.0549C211.212 36.044 210.424 36.8864 209.509 37.5824C208.593 38.315 207.549 38.9011 206.377 39.3407C208.245 42.4176 211.029 47.0513 214.729 53.2418Z" fill="#F9F9F9"></path>
  <path d="M245.06 38.8462C245.06 38.8462 245.06 31.1905 245.06 15.8791C246.562 15.8791 248.833 15.8791 251.873 15.8791C251.873 19.6886 251.873 27.326 251.873 38.7912C251.873 41.0256 251.489 43.0769 250.72 44.9451C249.95 46.8132 248.87 48.4249 247.478 49.7802C246.049 51.1355 244.364 52.1978 242.422 52.967C240.481 53.6996 238.301 54.0659 235.884 54.0659C233.649 54.0659 231.561 53.7179 229.62 53.022C227.678 52.2894 225.993 51.2637 224.564 49.9451C223.136 48.6264 222 47.0147 221.158 45.1099C220.352 43.2418 219.949 41.1355 219.949 38.7912C219.949 33.6996 219.949 26.0623 219.949 15.8791C221.084 15.8791 223.355 15.8791 226.762 15.8791C226.762 19.6886 226.762 27.326 226.762 38.7912C226.762 40.1099 226.964 41.337 227.367 42.4725C227.77 43.6081 228.356 44.6154 229.125 45.4945C229.894 46.3004 230.847 46.9597 231.982 47.4725C233.118 47.9487 234.418 48.1868 235.884 48.1868C237.312 48.1868 238.613 47.9487 239.785 47.4725C240.92 46.9597 241.873 46.3004 242.642 45.4945C243.411 44.652 243.998 43.663 244.401 42.5275C244.84 41.3919 245.06 40.1648 245.06 38.8462Z" fill="#F9F9F9"></path>
  <path d="M257.203 50.3846C257.203 50.3846 257.936 48.4249 259.401 44.5055C260.134 44.8718 260.995 45.2564 261.984 45.6593C262.973 46.0623 264.035 46.4469 265.171 46.8132C266.306 47.1795 267.479 47.4908 268.688 47.7473C269.933 48.0037 271.16 48.1319 272.369 48.1319C275.336 48.1319 277.479 47.619 278.798 46.5934C280.153 45.6044 280.831 44.2491 280.831 42.5275C280.831 41.6117 280.593 40.8425 280.117 40.2198C279.677 39.5604 279.036 39.011 278.193 38.5714C277.351 38.0952 276.325 37.6923 275.116 37.3626C273.944 36.9963 272.625 36.6484 271.16 36.3187C270.391 36.1722 269.548 35.989 268.633 35.7692C267.68 35.5495 266.728 35.2747 265.775 34.9451C264.859 34.6154 263.962 34.2125 263.083 33.7363C262.204 33.2601 261.416 32.7106 260.72 32.0879C260.061 31.3919 259.53 30.6044 259.127 29.7253C258.687 28.8462 258.467 27.8205 258.467 26.6484C258.467 24.9267 258.76 23.3516 259.346 21.9231C259.896 20.5311 260.775 19.3223 261.984 18.2967C263.156 17.2711 264.676 16.4652 266.545 15.8791C268.413 15.293 270.647 15 273.248 15C274.64 15 275.959 15.1099 277.204 15.3297C278.487 15.5495 279.695 15.8242 280.831 16.1538C281.967 16.5201 283.047 16.9048 284.073 17.3077C285.135 17.7106 286.106 18.1136 286.985 18.5165C286.546 19.7985 285.905 21.7033 285.062 24.2308C284.512 23.9744 283.78 23.663 282.864 23.2967C281.948 22.8938 280.904 22.5275 279.732 22.1978C278.596 21.8315 277.406 21.5385 276.16 21.3187C274.952 21.0623 273.798 20.9341 272.699 20.9341C271.233 20.9341 270.025 21.0806 269.072 21.3736C268.156 21.6667 267.405 22.0513 266.819 22.5275C266.27 23.0037 265.885 23.5531 265.665 24.1758C265.446 24.7619 265.336 25.3663 265.336 25.989C265.336 26.8315 265.555 27.5275 265.995 28.0769C266.471 28.663 267.112 29.1575 267.918 29.5604C268.724 29.9634 269.695 30.2747 270.83 30.4945C271.929 30.7509 273.138 30.989 274.457 31.2088C276.252 31.5751 277.955 32.0147 279.567 32.5275C281.179 33.0037 282.571 33.6813 283.743 34.5604C284.989 35.4029 285.978 36.4835 286.71 37.8022C287.406 39.1209 287.754 40.7692 287.754 42.7473C287.754 44.5788 287.37 46.1905 286.601 47.5824C285.868 49.011 284.787 50.2015 283.359 51.1538C282.003 52.1062 280.336 52.8388 278.358 53.3517C276.417 53.8645 274.274 54.1209 271.929 54.1209C270.391 54.1209 268.907 54.011 267.479 53.7912C266.013 53.5714 264.676 53.2967 263.467 52.967C262.185 52.6007 261.031 52.1978 260.006 51.7582C258.98 51.2821 258.046 50.8242 257.203 50.3846Z" fill="#F9F9F9"></path>
  <path d="M303.36 53.2418C303.36 48.0037 303.36 37.5275 303.36 21.8132C301.528 21.8132 297.847 21.8132 292.315 21.8132C292.315 20.8242 292.315 18.8462 292.315 15.8791C297.151 15.8791 306.84 15.8791 321.383 15.8791C321.383 16.8681 321.383 18.8462 321.383 21.8132C319.514 21.8132 315.796 21.8132 310.228 21.8132C310.228 27.0513 310.228 37.5275 310.228 53.2418C309.093 53.2418 306.803 53.2418 303.36 53.2418Z" fill="#F9F9F9"></path>
  <path d="M351.659 15.8791C353.014 15.8791 355.688 15.8791 359.681 15.8791C357.227 19.7253 352.318 27.4359 344.955 39.011C344.955 41.3919 344.955 46.1355 344.955 53.2418C343.82 53.2418 341.548 53.2418 338.142 53.2418C338.142 50.8608 338.142 46.1172 338.142 39.011C335.687 35.1648 330.779 27.4542 323.416 15.8791C324.734 15.8791 327.39 15.8791 331.383 15.8791C333.068 18.6996 336.438 24.3407 341.493 32.8022C341.493 32.8022 341.53 32.8022 341.603 32.8022C343.252 29.9817 346.604 24.3407 351.659 15.8791Z" fill="#F9F9F9"></path>
  <path d="M174.397 87C174.397 86.1575 174.397 84.4725 174.397 81.9451C176.558 81.9451 180.844 81.9451 187.255 81.9451C187.255 84.1429 187.255 88.5385 187.255 95.1319C187.255 95.1319 187.236 95.1319 187.2 95.1319C187.236 95.1685 187.255 95.1868 187.255 95.1868C186.339 96.2491 185.277 97.2015 184.068 98.044C182.822 98.8865 181.522 99.6007 180.166 100.187C178.811 100.773 177.401 101.212 175.935 101.505C174.47 101.835 173.023 102 171.595 102C168.811 102 166.173 101.487 163.682 100.462C161.228 99.4725 159.103 98.0989 157.308 96.3407C155.476 94.5458 154.03 92.4579 152.967 90.0769C151.905 87.696 151.374 85.1136 151.374 82.3297C151.374 79.5824 151.905 77.0366 152.967 74.6923C154.03 72.3114 155.476 70.2234 157.308 68.4286C159.103 66.6337 161.228 65.2234 163.682 64.1978C166.173 63.1722 168.811 62.6593 171.595 62.6593C174.488 62.6593 177.199 63.2088 179.727 64.3077C182.218 65.4066 184.397 66.9084 186.266 68.8132C185.203 69.7656 183.591 71.1575 181.43 72.989C180.185 71.6337 178.719 70.5714 177.034 69.8022C175.349 68.9963 173.536 68.5934 171.595 68.5934C169.726 68.5934 167.986 68.9597 166.374 69.6923C164.726 70.3883 163.316 71.359 162.143 72.6044C160.935 73.8498 159.964 75.2967 159.231 76.9451C158.535 78.63 158.187 80.4432 158.187 82.3846C158.187 84.2894 158.535 86.0843 159.231 87.7692C159.964 89.4176 160.935 90.8645 162.143 92.1099C163.316 93.3553 164.726 94.326 166.374 95.022C167.986 95.7179 169.726 96.0659 171.595 96.0659C173.206 96.0659 174.782 95.7729 176.32 95.1868C177.859 94.6007 179.232 93.8132 180.441 92.8242C180.441 91.5421 180.441 89.6007 180.441 87C179.452 87 177.437 87 174.397 87Z" fill="#F9F9F9"></path>
  <path d="M220.663 86.6703C220.663 86.6703 220.663 79.0147 220.663 63.7033C222.165 63.7033 224.436 63.7033 227.477 63.7033C227.477 67.5128 227.477 75.1502 227.477 86.6154C227.477 88.8498 227.092 90.9011 226.323 92.7692C225.553 94.6374 224.473 96.2491 223.081 97.6044C221.652 98.9597 219.967 100.022 218.026 100.791C216.084 101.524 213.904 101.89 211.487 101.89C209.252 101.89 207.164 101.542 205.223 100.846C203.281 100.114 201.596 99.0879 200.167 97.7692C198.739 96.4506 197.603 94.8388 196.761 92.9341C195.955 91.0659 195.552 88.9597 195.552 86.6154C195.552 81.5238 195.552 73.8864 195.552 63.7033C196.687 63.7033 198.959 63.7033 202.365 63.7033C202.365 67.5128 202.365 75.1502 202.365 86.6154C202.365 87.9341 202.567 89.1612 202.97 90.2967C203.373 91.4322 203.959 92.4396 204.728 93.3187C205.497 94.1245 206.45 94.7839 207.585 95.2967C208.721 95.7729 210.021 96.011 211.487 96.011C212.915 96.011 214.216 95.7729 215.388 95.2967C216.524 94.7839 217.476 94.1245 218.245 93.3187C219.015 92.4762 219.601 91.4872 220.004 90.3517C220.443 89.2161 220.663 87.989 220.663 86.6703Z" fill="#F9F9F9"></path>
  <path d="M255.335 90.022C255.005 90.022 254.383 90.022 253.467 90.022C251.635 87.4945 247.954 82.4579 242.422 74.9121C242.422 79.2711 242.422 87.989 242.422 101.066C241.25 101.066 238.961 101.066 235.554 101.066C235.554 94.8388 235.554 82.3846 235.554 63.7033C236.543 63.7033 238.539 63.7033 241.543 63.7033C243.668 66.5971 247.954 72.3663 254.401 81.011C256.562 78.1172 260.867 72.348 267.314 63.7033C268.339 63.7033 270.354 63.7033 273.358 63.7033C273.358 69.9304 273.358 82.3846 273.358 101.066C272.186 101.066 269.896 101.066 266.49 101.066C266.49 96.707 266.49 87.989 266.49 74.9121C264.621 77.4396 260.903 82.4762 255.335 90.022Z" fill="#F9F9F9"></path>
  <path d="M301.766 90.022C301.436 90.022 300.814 90.022 299.898 90.022C298.066 87.4945 294.385 82.4579 288.853 74.9121C288.853 79.2711 288.853 87.989 288.853 101.066C287.681 101.066 285.392 101.066 281.985 101.066C281.985 94.8388 281.985 82.3846 281.985 63.7033C282.974 63.7033 284.97 63.7033 287.974 63.7033C290.099 66.5971 294.385 72.3663 300.832 81.011C302.993 78.1172 307.298 72.348 313.745 63.7033C314.77 63.7033 316.785 63.7033 319.789 63.7033C319.789 69.9304 319.789 82.3846 319.789 101.066C318.617 101.066 316.327 101.066 312.921 101.066C312.921 96.707 312.921 87.989 312.921 74.9121C311.052 77.4396 307.334 82.4762 301.766 90.022Z" fill="#F9F9F9"></path>
  <path d="M352.978 63.7033C354.333 63.7033 357.007 63.7033 361 63.7033C358.546 67.5495 353.637 75.2601 346.274 86.8352C346.274 89.2161 346.274 93.9597 346.274 101.066C345.138 101.066 342.867 101.066 339.46 101.066C339.46 98.685 339.46 93.9414 339.46 86.8352C337.006 82.989 332.097 75.2784 324.734 63.7033C326.053 63.7033 328.709 63.7033 332.702 63.7033C334.387 66.5238 337.757 72.1648 342.812 80.6264C342.812 80.6264 342.849 80.6264 342.922 80.6264C344.571 77.8059 347.922 72.1648 352.978 63.7033Z" fill="#F9F9F9"></path>
</svg>
