<svg width="22" height="24" viewBox="0 0 22 24" fill="none" xmlns="http://www.w3.org/2000/svg">
<path d="M3.40013 22.7892L20.2317 13.2792C20.4663 13.1455 20.6602 12.9576 20.7948 12.7336C20.9293 12.5096 21 12.2569 21 12C21 11.7431 20.9293 11.4904 20.7948 11.2664C20.6602 11.0424 20.4663 10.8545 20.2317 10.7208L3.40013 1.2108C3.15887 1.07562 2.8835 1.00289 2.60228 1.00008C2.32105 0.997278 2.04409 1.06449 1.7998 1.19483C1.55551 1.32517 1.3527 1.51394 1.21215 1.74178C1.07161 1.96962 0.998394 2.22833 1.00003 2.49137V21.5086C0.998394 21.7717 1.07161 22.0304 1.21215 22.2582C1.3527 22.4861 1.55551 22.6748 1.7998 22.8052C2.04409 22.9355 2.32105 23.0027 2.60228 22.9999C2.8835 22.9971 3.15887 22.9244 3.40013 22.7892Z" stroke="#0C081E"/>
</svg>
