<?xml version="1.0" encoding="UTF-8"?>
<svg xmlns="http://www.w3.org/2000/svg" width="61" height="56" viewBox="0 0 61 56" fill="none">
  <path d="M60.2645 51.5088C60.2564 51.4861 60.2469 51.464 60.2361 51.4425L60.2456 51.4394C54.0272 32.6141 43.9846 15.2689 30.7443 0.486232L30.7365 0.493156C30.7232 0.473047 30.7087 0.453765 30.693 0.435415C30.6317 0.380913 30.5603 0.338992 30.4827 0.312046C30.4052 0.285101 30.3231 0.27366 30.2411 0.27838C30.1592 0.283099 30.0789 0.303886 30.005 0.339552C29.9311 0.375217 29.865 0.42506 29.8104 0.486232C16.5703 15.269 6.52761 32.6142 0.309131 51.4394L0.318437 51.4425C0.307665 51.464 0.298236 51.4861 0.290206 51.5088C0.256783 51.6706 0.289105 51.839 0.380077 51.9771C0.471048 52.1151 0.613236 52.2116 0.775436 52.2452C10.4799 54.2569 20.3654 55.2729 30.2773 55.2773C40.1893 55.2729 50.0748 54.2569 59.7793 52.2452C59.9415 52.2116 60.0836 52.1151 60.1746 51.9771C60.2656 51.839 60.2979 51.6706 60.2645 51.5088ZM13.3255 43.8536C13.2986 43.9464 13.2937 44.0442 13.3111 44.1393C13.3286 44.2344 13.368 44.3241 13.4262 44.4014C13.4843 44.4787 13.5597 44.5415 13.6464 44.5848C13.733 44.6281 13.8286 44.6507 13.9255 44.6509C23.2409 45.141 31.9785 45.28 40.0545 45.0688C27.4578 47.9087 14.6774 49.8674 1.80691 50.9306C7.50652 34.0481 16.3222 18.3775 27.7994 4.72674C22.0232 17.3992 17.1857 30.4764 13.3255 43.8536ZM14.9302 43.4507C19.1621 35.2479 24.3501 26.3957 30.3719 17.1066C35.381 24.8638 40.4762 33.7659 45.5348 43.6134C36.2925 44.0605 26.009 44.0059 14.9302 43.4507ZM30.8242 15.5191L30.8153 15.5276C30.7522 15.4585 30.674 15.4049 30.5867 15.3709C30.4994 15.3369 30.4054 15.3235 30.312 15.3317C30.2187 15.3399 30.1285 15.3694 30.0485 15.4181C29.9685 15.4668 29.9008 15.5332 29.8508 15.6122L29.8489 15.611C24.7609 23.4185 20.2607 30.9221 16.403 38.0076C20.2347 25.7051 24.9241 13.6847 30.4368 2.03429C42.2445 15.3918 51.4438 30.8328 57.5609 47.5614C49.4445 36.2445 40.5084 25.5352 30.8242 15.5191ZM5.46332 51.862C19.3579 50.5137 33.1348 48.1526 46.6836 44.7979C46.775 44.7753 46.8601 44.7325 46.9326 44.6726C47.005 44.6127 47.0631 44.5373 47.1022 44.452C47.1414 44.3666 47.1608 44.2735 47.1589 44.1797C47.157 44.0858 47.1339 43.9936 47.0913 43.9099C42.8517 35.607 38.5824 27.9654 34.3554 21.0887C43.1289 30.5519 51.2282 40.6153 58.5939 51.2051C41.0797 54.7257 23.0597 54.9485 5.46332 51.862Z" fill="#0C081E"></path>
</svg>
