<?xml version="1.0" encoding="UTF-8"?>
<svg xmlns="http://www.w3.org/2000/svg" width="50" height="60" viewBox="0 0 50 60" fill="none">
  <path d="M47.493 29.7205C43.5379 21.806 39.23 15.3146 34.6701 8.44177C32.9422 5.83739 31.1551 3.14423 29.3301 0.288388C29.2736 0.199972 29.1957 0.127212 29.1037 0.0768125C29.0116 0.0264134 28.9083 -2.71418e-06 28.8034 2.09167e-10H21.1911V0.0112498C21.087 0.00914808 20.9841 0.0334674 20.892 0.0819337C20.7999 0.1304 20.7216 0.201431 20.6644 0.288388C18.84 3.143 17.0541 5.83496 15.3262 8.43839C10.7651 15.3122 6.45662 21.8048 2.49542 29.7324C-0.970156 37.0505 -0.794375 44.9667 2.96661 50.9088C6.62323 56.6864 13.2657 60 21.1911 60H28.8034C36.7294 60 43.3719 56.6864 47.0285 50.9088C50.7889 44.967 50.9647 37.0508 47.493 29.7205ZM4.02252 50.2402C0.492243 44.6625 0.343931 37.196 3.61907 30.2796C7.54058 22.432 11.8283 15.9705 16.3681 9.12934C17.9311 6.77388 19.5438 4.33915 21.1897 1.78102C22.4071 3.67338 26.0098 9.12294 26.0098 9.12294C30.5508 15.9662 34.8397 22.4301 38.7564 30.2673C39.2574 31.3281 39.6857 32.4217 40.0381 33.5406C40.5431 34.9422 40.8615 36.404 40.9854 37.8885C41.2566 40.5118 40.6739 43.1527 39.324 45.4184C37.2214 48.7759 33.3871 50.625 28.5275 50.625C28.3433 50.625 28.162 50.6174 27.9798 50.6119C30.1868 49.686 32.0562 48.1048 33.3353 46.0819C35.8078 42.1326 35.8762 36.6815 33.5104 31.4862C31.1146 26.6308 28.4512 21.912 25.5325 17.3517C24.3881 15.5286 23.2236 13.7112 22.0047 11.8149C21.9434 11.7295 21.8617 11.6608 21.767 11.6151C21.6723 11.5694 21.5677 11.5482 21.4627 11.5533C21.354 11.5581 21.248 11.5889 21.1538 11.6433C21.0595 11.6977 20.9798 11.7741 20.9213 11.8658C16.8167 18.2517 12.9404 24.2831 9.44183 31.4999C9.1635 32.1118 8.91264 32.7459 8.68927 33.4021L8.64105 33.5532C8.61417 33.6362 8.58734 33.7195 8.5672 33.7885L8.53607 33.8895C8.16474 35.076 7.91685 36.2977 7.79633 37.5351C6.54733 47.4926 11.7626 55.7127 20.773 58.7395C13.371 58.6295 7.43149 55.6259 4.02252 50.2402ZM25.0034 18.8651C27.6952 23.1144 30.1575 27.505 32.3795 32.0178C34.5639 36.8164 34.5254 41.8259 32.2757 45.4184C31.4575 46.6784 30.3903 47.7578 29.1397 48.5903C27.8891 49.4229 26.4815 49.9909 25.0034 50.2597C23.5253 49.9909 22.1178 49.4227 20.8673 48.5901C19.6168 47.7576 18.5497 46.6781 17.7316 45.4181C15.4819 41.8262 15.4428 36.8167 17.6205 32.0312C19.845 27.514 22.3094 23.119 25.0034 18.8651ZM45.9726 50.2402C42.4991 55.7278 36.4017 58.75 28.8034 58.75C28.5226 58.75 28.2449 58.7433 27.969 58.7341C27.5046 58.7189 27.0478 58.6895 26.5977 58.6506L26.3838 58.631L26.3831 58.6307C25.9451 58.5888 25.5112 58.5406 25.087 58.4793C14.2972 56.9189 7.69684 48.3704 9.039 37.6709C9.15093 36.5133 9.38247 35.3704 9.72992 34.2606L9.76471 34.147C9.78485 34.0781 9.80743 34.0088 9.83001 33.9395L9.87823 33.786C10.0821 33.187 10.3183 32.5922 10.5728 32.0313C13.8931 25.1825 17.5803 19.3784 21.4792 13.309C22.4222 14.778 23.3484 16.2311 24.2648 17.6874C21.423 22.1463 18.8273 26.7573 16.4896 31.4999C14.1312 36.6821 14.1989 42.1332 16.6721 46.0815C17.5908 47.5044 18.794 48.7217 20.2061 49.657C21.6181 50.5922 23.2085 51.2251 24.877 51.5158C26.0786 51.7587 27.3017 51.8791 28.5275 51.875C33.8333 51.875 38.0441 49.8175 40.3836 46.0819C41.8764 43.5891 42.5246 40.681 42.2317 37.7903C42.1004 36.2033 41.7612 34.6404 41.2228 33.1418C40.8524 31.9727 40.404 30.8296 39.8807 29.7205C35.9238 21.8027 31.6141 15.3079 27.0517 8.43201C27.0517 8.43201 23.5141 3.08117 22.3349 1.25H28.4616C30.228 4.00787 31.9559 6.61194 33.6283 9.13299C38.1668 15.9729 42.4539 22.4335 46.3693 30.2676C49.6506 37.1964 49.5022 44.6628 45.9726 50.2402Z" fill="#0C081E"></path>
</svg>
