<svg width="20" height="20" viewBox="0 0 20 20" fill="none" xmlns="http://www.w3.org/2000/svg">
<path d="M9.99902 0C4.47602 0 -0.000976562 4.477 -0.000976562 10C-0.000976562 15.523 4.47602 20 9.99902 20C15.522 20 19.999 15.523 19.999 10C19.999 4.477 15.522 0 9.99902 0ZM9.99902 2C12.1208 2 14.1556 2.84285 15.6559 4.34315C17.1562 5.84344 17.999 7.87827 17.999 10C17.999 12.1217 17.1562 14.1566 15.6559 15.6569C14.1556 17.1571 12.1208 18 9.99902 18C7.87729 18 5.84246 17.1571 4.34217 15.6569C2.84188 14.1566 1.99902 12.1217 1.99902 10C1.99902 7.87827 2.84188 5.84344 4.34217 4.34315C5.84246 2.84285 7.87729 2 9.99902 2V2ZM8.99902 15H10.999V13H8.99902V15ZM8.99902 11H10.999V5H8.99902V11Z" fill="#EC5A5A"/>
</svg>
