<?xml version="1.0" encoding="UTF-8"?>
<svg xmlns="http://www.w3.org/2000/svg" width="57" height="57" viewBox="0 0 57 57" fill="none">
  <path d="M49.463 9.21784C49.2029 8.92174 48.9345 8.63083 48.6525 8.34887C48.6325 8.33354 48.6115 8.31958 48.5896 8.30709C43.313 3.04916 36.1864 0.0674724 28.7374 0.00113109C21.2884 -0.0652102 14.1098 2.78908 8.74034 7.95219C3.3709 13.1153 0.23794 20.1763 0.0130025 27.6217C-0.211935 35.0671 2.48905 42.3044 7.53702 47.7822C7.79715 48.0783 8.06551 48.3692 8.34749 48.6511C8.36748 48.6665 8.38849 48.6804 8.41037 48.6929C13.687 53.9508 20.8136 56.9325 28.2626 56.9989C35.7116 57.0652 42.8902 54.2109 48.2597 49.0478C53.6291 43.8847 56.7621 36.8237 56.987 29.3783C57.2119 21.9329 54.5109 14.6956 49.463 9.21784ZM1.18737 28.5C1.18423 23.0027 2.84119 17.6326 5.94131 13.0927C9.04142 8.55282 13.4402 5.05474 18.5618 3.05645C23.6834 1.05816 29.289 0.652793 34.6448 1.89342C40.0006 3.13405 44.857 5.96285 48.5781 10.0095C55.3747 17.756 54.2039 30.5055 45.7136 38.9955C44.3635 40.3473 42.8681 41.5459 41.2548 42.5694C44.0994 39.9942 46.0971 36.6178 46.9849 32.8849C47.8726 29.152 47.6087 25.2378 46.2279 21.6579C44.847 18.078 42.4141 15.0003 39.2495 12.8302C36.085 10.6601 32.3372 9.4995 28.5 9.50121C27.8696 9.50121 27.2466 9.53372 26.6318 9.59401L26.6292 9.59369C26.6169 9.59448 26.6048 9.59619 26.5925 9.59702C26.5775 9.59854 26.5623 9.5996 26.5473 9.60112C20.4445 10.1006 14.7271 12.7866 10.4468 17.165C4.31639 23.2948 1.83556 31.5558 3.20712 38.7912C1.8715 35.5246 1.18546 32.029 1.18737 28.5ZM30.3139 46.2196C25.6533 46.6424 21.0156 45.1967 17.421 42.2005C13.8263 39.2043 11.5691 34.903 11.1458 30.2427C10.7226 25.5825 12.1679 20.945 15.164 17.3503C18.1601 13.7556 22.4615 11.4981 27.122 11.0744C31.7825 10.6508 36.4205 12.0956 40.0157 15.0912C43.611 18.0867 45.869 22.3876 46.2931 27.0478C46.7172 31.7079 45.2727 36.3457 42.2773 39.941C39.2819 43.5362 34.9809 45.7945 30.3205 46.219L30.3139 46.2196ZM28.5 55.8108C24.7248 55.812 20.9905 55.0285 17.5341 53.5101C14.0777 51.9918 10.9747 49.7716 8.42185 46.9905C1.62526 39.244 2.7961 26.4945 11.2864 18.0045C12.6367 16.6525 14.1322 15.4539 15.7457 14.4302C12.9009 17.0054 10.9031 20.3818 10.0152 24.1147C9.1274 27.8476 9.39125 31.7619 10.772 35.3419C12.1528 38.9219 14.5858 41.9996 17.7503 44.1697C20.9149 46.3399 24.6627 47.5005 28.5 47.4988C29.1289 47.4988 29.7503 47.4663 30.3638 47.4063L30.372 47.406L30.3947 47.404C30.4157 47.4019 30.4369 47.4004 30.4578 47.3982C36.5588 46.8976 42.274 44.212 46.5532 39.835C52.6836 33.7052 55.1644 25.4442 53.7929 18.2088C55.4831 22.3548 56.1275 26.8529 55.6693 31.3066C55.2111 35.7603 53.6644 40.033 51.1655 43.7481C48.6665 47.4632 45.2921 50.5067 41.3395 52.6102C37.3869 54.7138 32.9776 55.8129 28.5 55.8108Z" fill="#0C081E"></path>
</svg>
