<svg width="56" height="56" viewBox="0 0 56 56" fill="none" xmlns="http://www.w3.org/2000/svg">
<path d="M51.1086 15.992L40.2654 5.14904C33.5022 -1.61452 22.6129 -1.72963 15.9921 4.89119L11.7435 9.13982L5.14897 15.7344C-1.61426 22.4974 -1.72993 33.3866 4.89141 40.0079L15.7346 50.8509C17.3568 52.4812 19.2848 53.7752 21.4082 54.6588C23.5315 55.5423 25.8084 55.9981 28.1083 55.9998C30.3162 56.0092 32.5042 55.5819 34.5464 54.7425C36.5886 53.9031 38.4447 52.6682 40.0079 51.1087L50.851 40.2655C57.6143 33.5025 57.7299 22.6134 51.1086 15.992ZM8.99299 15.3011C9.09328 15.0595 9.19946 14.8192 9.31152 14.5814L9.31211 14.5808C9.53712 14.104 9.78891 13.6323 10.0594 13.1792C10.196 12.9502 10.3397 12.7242 10.4881 12.5006C10.7878 12.0515 11.1133 11.612 11.4558 11.194L11.3919 11.1417L11.4563 11.1937C11.8022 10.7704 12.1766 10.3569 12.5686 9.96488L16.8173 5.71631C22.9833 -0.44979 33.1319 -0.334117 39.4404 5.97415L41.5578 8.09156C39.391 7.12462 37.0487 6.61264 34.6761 6.58729C34.6117 6.5867 34.5473 6.58643 34.4823 6.58643C32.274 6.5751 30.0853 7.00234 28.0433 7.84337C26.0013 8.68439 24.1466 9.92247 22.5867 11.4858L19.1246 14.9479C18.781 15.296 18.4664 15.6716 18.1843 16.0712C17.9295 16.4197 17.7005 16.7862 17.4988 17.1678C17.3612 17.4334 17.2374 17.706 17.1273 17.9841C16.9092 18.5355 16.7456 19.1069 16.6389 19.6902C16.5326 20.271 16.4824 20.8608 16.4891 21.4512C16.4961 22.0433 16.5591 22.6334 16.6771 23.2137C16.9192 24.4018 17.39 25.5321 18.0635 26.5404C18.4129 27.0643 18.8135 27.5523 19.259 27.9974L27.1748 35.9133L27.172 35.916C26.7814 36.307 26.3531 36.6585 25.8934 36.9653L25.8928 36.9656C25.4478 37.2622 24.9751 37.5147 24.4813 37.7198C23.5164 38.121 22.4834 38.3329 21.4385 38.344C21.1464 38.3463 20.8544 38.3322 20.5638 38.3019C20.1455 38.2599 19.7311 38.1852 19.3245 38.0782C18.3998 37.837 17.5278 37.4266 16.7523 36.8683C16.4042 36.6228 16.0768 36.3492 15.7733 36.0505L12.3111 32.5882C10.8123 31.0948 9.63719 29.3085 8.85909 27.341C8.66934 26.8612 8.50238 26.3705 8.36334 25.8831C8.22317 25.3933 8.10578 24.8904 8.01347 24.3881C7.92237 23.888 7.85392 23.3768 7.81062 22.869C7.63829 20.8137 7.85993 18.7445 8.46362 16.7724C8.6152 16.2772 8.79298 15.7823 8.99299 15.3011ZM20.9114 28L28 20.9116L35.0886 28L28 35.0883L20.9114 28ZM13.1789 45.9401C12.9504 45.8034 12.7244 45.6606 12.5008 45.5119C12.0529 45.2139 11.613 44.8879 11.1942 44.5446L11.142 44.6083L9.96509 43.4314L5.71651 39.1828C-0.449543 33.0164 -0.333864 22.8678 5.9741 16.5595L8.10253 14.4311C8.03971 14.5719 7.97375 14.7117 7.91513 14.8538C7.70145 15.3695 7.51034 15.9003 7.34794 16.4311C6.70014 18.5455 6.46262 20.7642 6.64817 22.9678C6.69433 23.5126 6.76784 24.0613 6.86582 24.5984C6.9644 25.1372 7.0909 25.6777 7.24076 26.2033C7.39063 26.7279 7.57012 27.2549 7.77412 27.7706C8.6107 29.8865 9.87424 31.8073 11.4859 33.4133L14.9482 36.8756C15.2962 37.219 15.6716 37.5335 16.0707 37.8158L16.0713 37.8161C16.9633 38.458 17.9661 38.9296 19.0293 39.2073C19.4953 39.33 19.9704 39.4154 20.4499 39.4632C20.7809 39.4957 21.0824 39.5113 21.3678 39.5113C21.3958 39.5113 21.4237 39.5113 21.451 39.511C22.6451 39.4984 23.8255 39.2563 24.9281 38.7979C25.492 38.5636 26.0319 38.2752 26.5401 37.9366C27.0641 37.5873 27.5521 37.1869 27.9972 36.7414L35.9136 28.8252L35.916 28.8276C36.4983 29.409 36.9915 30.0732 37.3796 30.7988C38.1227 32.1884 38.4478 33.7636 38.3161 35.3339C38.2722 35.8478 38.1789 36.3563 38.0374 36.8522C37.8223 37.6048 37.4957 38.3208 37.0677 38.9761C36.7725 39.4268 36.4315 39.8458 36.0504 40.2267L32.5882 43.689C30.7235 45.5518 28.4161 46.9103 25.8825 47.6371C24.6516 47.9882 23.3827 48.1893 22.1035 48.2357C20.3 48.3014 18.4983 48.0651 16.7728 47.5365C16.2776 47.3849 15.7824 47.2068 15.3009 47.0074C15.0588 46.9071 14.8187 46.8007 14.5807 46.688C14.1017 46.4615 13.6306 46.2101 13.1795 45.9401L13.1789 45.9401ZM47.007 40.6988C46.872 41.0251 46.709 41.3769 46.509 41.7747C46.3985 41.9948 46.2829 42.2127 46.1622 42.4284C45.9356 42.8319 45.7228 43.1824 45.5115 43.4996C45.2119 43.9485 44.8866 44.388 44.5442 44.8059L44.5436 44.8061C44.1978 45.2295 43.8234 45.6429 43.4314 46.035L39.1828 50.2836C33.0167 56.4492 22.867 56.334 16.5596 50.0258L14.4321 47.8983C14.5727 47.961 14.7123 48.0266 14.8542 48.0855C15.3699 48.2992 15.9004 48.4898 16.4309 48.6522C18.0793 49.1569 19.7937 49.4135 21.5177 49.4135C21.7274 49.4135 21.9369 49.4097 22.1462 49.4021C23.5194 49.352 24.882 49.1361 26.2033 48.7591C28.9273 47.9776 31.4086 46.517 33.4133 44.5141L36.8756 41.0519C37.3133 40.6143 37.7049 40.1329 38.0443 39.6153C38.5363 38.8619 38.9123 38.0384 39.1594 37.173L39.16 37.1725C39.484 36.0331 39.5856 34.8421 39.4592 33.6643C39.3313 32.4697 38.975 31.3102 38.4095 30.2502L38.409 30.2499C37.967 29.4225 37.405 28.6652 36.7411 28.0025L28.8254 20.0868L28.8285 20.0836C29.2187 19.6924 29.6468 19.341 30.1066 19.0346L30.1072 19.0343C30.9903 18.445 31.9794 18.0328 33.0196 17.8206C34.0005 17.6204 35.0101 17.6042 35.9969 17.7729C37.1704 17.9705 38.2827 18.4355 39.2477 19.1317C39.5958 19.3772 39.9232 19.6507 40.2267 19.9494L43.6889 23.4117C45.1876 24.9053 46.3626 26.6915 47.1409 28.659C47.3307 29.1394 47.4976 29.6298 47.6367 30.1169C47.7768 30.6066 47.8942 31.1095 47.9865 31.6118C48.124 32.3665 48.2074 33.13 48.2361 33.8965C48.2543 34.4014 48.2486 34.9177 48.219 35.4311C48.1888 35.9415 48.1335 36.4566 48.0555 36.9625C47.9366 37.7289 47.7631 38.4858 47.5364 39.2276C47.3848 39.7227 47.207 40.2176 47.007 40.6988ZM50.0259 39.4404L47.9004 41.5659C47.965 41.423 48.0291 41.2807 48.085 41.1461C48.2987 40.6304 48.4897 40.0997 48.6521 39.5689C48.8953 38.774 49.0813 37.9628 49.2088 37.1414C49.2926 36.5992 49.3513 36.0468 49.3837 35.5C49.4157 34.9496 49.4219 34.3951 49.402 33.8535C49.3712 33.0309 49.2817 32.2113 49.1342 31.4015C49.0356 30.8628 48.9091 30.3223 48.7592 29.7966C48.6093 29.2726 48.4298 28.7453 48.2259 28.2293V28.2287C47.3891 26.1131 46.1256 24.1925 44.514 22.5866L41.0518 19.1243C40.7038 18.7809 40.3284 18.4664 39.9292 18.1841L39.9286 18.1838C38.8196 17.3838 37.5414 16.8496 36.1929 16.6225C35.0639 16.4297 33.9082 16.4482 32.7859 16.6769C31.598 16.9196 30.4684 17.3904 29.4599 18.0633C28.9359 18.4125 28.4478 18.813 28.0028 19.2585L20.0864 27.1747L20.084 27.1723C19.6931 26.7814 19.3415 26.353 19.0344 25.8933C18.4448 25.0104 18.0324 24.0209 17.8201 22.9806C17.7169 22.4728 17.6619 21.9563 17.656 21.4381C17.6503 20.9228 17.694 20.408 17.7865 19.901C17.8797 19.3926 18.0223 18.8945 18.2122 18.4138C18.3078 18.1721 18.4157 17.9354 18.5352 17.7046L18.5358 17.7041C18.711 17.3726 18.9102 17.0545 19.1319 16.7522L19.1324 16.7516C19.3775 16.4037 19.6508 16.0765 19.9496 15.7735L23.4118 12.3109C24.886 10.8358 26.6417 9.67221 28.5747 8.88941C30.5077 8.10661 32.5784 7.72059 34.6635 7.7543C38.9395 7.80159 43.0248 9.53114 46.0349 12.5685L50.2835 16.8171C56.4495 22.9835 56.3339 33.1321 50.0259 39.4404Z" fill="black"/>
</svg>
