<svg width="90" height="90" viewBox="0 0 90 90" fill="none" xmlns="http://www.w3.org/2000/svg">
<g clip-path="url(#clip0_243_7229)">
<rect width="90" height="90" rx="45" fill="#0C081E"/>
<path d="M89.5 45C89.5 69.5767 69.5767 89.5 45 89.5C20.4233 89.5 0.5 69.5767 0.5 45C0.5 20.4233 20.4233 0.5 45 0.5C69.5767 0.5 89.5 20.4233 89.5 45Z" fill="#0C081E" stroke="#F9F9F9"/>
<circle cx="45" cy="32" r="15.5" fill="#FED936" stroke="#0C081E"/>
<mask id="path-5-inside-1_243_7229" fill="white">
<path d="M68.1959 92.5C77.4765 92.5 85.3093 84.6515 81.4791 76.1981C79.1586 71.0766 75.7715 66.5096 71.5442 62.8023C67.3168 59.0951 62.3468 56.333 56.9662 54.7009C51.5857 53.0687 45.9187 52.604 40.3442 53.3379C34.7697 54.0718 29.4161 55.9874 24.6413 58.9565C19.8666 61.9256 15.7807 65.8799 12.6569 70.555C9.53318 75.23 7.44349 80.5181 6.52759 86.0656C5.01581 95.2223 14.613 100.776 23.5775 98.3741L41.0613 93.6894C44.0077 92.8999 47.0449 92.5 50.0953 92.5H68.1959Z"/>
</mask>
<path d="M68.1959 92.5C77.4765 92.5 85.3093 84.6515 81.4791 76.1981C79.1586 71.0766 75.7715 66.5096 71.5442 62.8023C67.3168 59.0951 62.3468 56.333 56.9662 54.7009C51.5857 53.0687 45.9187 52.604 40.3442 53.3379C34.7697 54.0718 29.4161 55.9874 24.6413 58.9565C19.8666 61.9256 15.7807 65.8799 12.6569 70.555C9.53318 75.23 7.44349 80.5181 6.52759 86.0656C5.01581 95.2223 14.613 100.776 23.5775 98.3741L41.0613 93.6894C44.0077 92.8999 47.0449 92.5 50.0953 92.5H68.1959Z" fill="#FED936" stroke="#0C081E" stroke-width="2" mask="url(#path-5-inside-1_243_7229)"/>
</g>
<rect x="0.5" y="0.5" width="89" height="89" rx="44.5" stroke="#F9F9F9"/>
<defs>
<clipPath id="clip0_243_7229">
<rect width="90" height="90" rx="45" fill="white"/>
</clipPath>
</defs>
</svg>
