<svg width="56" height="52" viewBox="0 0 56 52" fill="none" xmlns="http://www.w3.org/2000/svg">
<path d="M55.9202 14.904L51.6778 7.60247C51.6255 7.51258 51.5503 7.43793 51.4598 7.38602C51.3692 7.3341 51.2664 7.30676 51.1618 7.30673H34.7135L30.6401 0.295744C30.5878 0.205857 30.5126 0.131204 30.422 0.0792893C30.3315 0.0273748 30.2287 2.8758e-05 30.1241 0H4.84114C4.73652 2.8758e-05 4.63375 0.0273748 4.54317 0.0792893C4.45258 0.131204 4.37737 0.205857 4.3251 0.295744L0.0798446 7.60247C0.0275396 7.69219 0 7.79399 0 7.89763C0 8.00127 0.0275396 8.10307 0.0798446 8.19279L8.3046 22.3489L4.23375 29.3559C4.18144 29.4456 4.1539 29.5474 4.1539 29.6511C4.1539 29.7547 4.18144 29.8565 4.23375 29.9462L16.8752 51.7042C16.9275 51.7941 17.0027 51.8688 17.0933 51.9207C17.1839 51.9726 17.2866 52 17.3913 52H25.8818C25.9864 52 26.0892 51.9726 26.1797 51.9207C26.2703 51.8688 26.3455 51.7941 26.3978 51.7043L34.6222 37.5484H42.7626C42.8673 37.5484 42.97 37.521 43.0606 37.4691C43.1512 37.4172 43.2264 37.3425 43.2787 37.2527L55.9202 15.4943C55.9725 15.4046 56 15.3028 56 15.1992C56 15.0955 55.9725 14.9937 55.9202 14.904ZM50.1309 8.48855L38.1788 29.0601H22.4616L26.029 23.0339H34.3298C34.4344 23.0339 34.5371 23.0065 34.6277 22.9546C34.7183 22.9027 34.7935 22.8281 34.8458 22.7382L39.091 15.4314C39.1433 15.3417 39.1709 15.2399 39.1709 15.1363C39.1709 15.0326 39.1433 14.9308 39.091 14.8411L35.4002 8.48855L50.1309 8.48855ZM13.9278 29.6511L21.5244 16.5759L24.9972 22.443L20.9075 29.3519C20.8538 29.4426 20.8255 29.5459 20.8255 29.6511C20.8255 29.7563 20.8538 29.8595 20.9075 29.9503L25.2325 37.2567C25.2851 37.3455 25.3601 37.4191 25.4502 37.4703C25.5403 37.5214 25.6424 37.5484 25.7462 37.5484H33.2471L25.8816 50.2256L13.9278 29.6511ZM25.5346 8.48855L33.2989 21.8521H26.029L22.0333 15.1017C21.9807 15.0129 21.9056 14.9392 21.8155 14.8881C21.7254 14.8369 21.6234 14.81 21.5196 14.8099H13.0291C12.9244 14.81 12.8217 14.8373 12.7311 14.8892C12.6405 14.9412 12.5653 15.0158 12.513 15.1057L8.99212 21.1656L1.62687 8.48855H25.5346ZM13.3735 15.9918H20.4887L12.8961 29.0601H5.78074L13.3735 15.9918ZM13.2374 29.6494L13.2399 29.6509L13.2374 29.6525V29.6494ZM26.0871 36.3666L22.4616 30.242H38.1734L41.7318 36.3666H26.0871ZM37.8873 15.1363L34.3296 21.2595L26.5664 7.89764L30.124 1.77442L37.8873 15.1363ZM5.18554 1.18182H29.0932L25.5346 7.30673H1.62687L5.18554 1.18182ZM5.78077 30.242H12.8961L24.8509 50.8182H17.7357L5.78077 30.242ZM42.7625 35.7739L39.2078 29.6557L51.1617 9.08115L54.7165 15.1992L42.7625 35.7739Z" fill="#0C081E"/>
</svg>
