<svg width="95" height="15" viewBox="0 0 95 15" fill="none" xmlns="http://www.w3.org/2000/svg">
<path d="M7.5 0L9.71301 4.45405L14.6329 5.18237L11.0807 8.66345L11.9084 13.5676L7.5 11.265L3.09161 13.5676L3.91927 8.66345L0.367076 5.18237L5.28699 4.45405L7.5 0Z" fill="#0C081E"/>
<path d="M27.5 0L29.713 4.45405L34.6329 5.18237L31.0807 8.66345L31.9084 13.5676L27.5 11.265L23.0916 13.5676L23.9193 8.66345L20.3671 5.18237L25.287 4.45405L27.5 0Z" fill="#0C081E"/>
<path d="M47.5 0L49.713 4.45405L54.6329 5.18237L51.0807 8.66345L51.9084 13.5676L47.5 11.265L43.0916 13.5676L43.9193 8.66345L40.3671 5.18237L45.287 4.45405L47.5 0Z" fill="#0C081E"/>
<path d="M67.5 0L69.713 4.45405L74.6329 5.18237L71.0807 8.66345L71.9084 13.5676L67.5 11.265L63.0916 13.5676L63.9193 8.66345L60.3671 5.18237L65.287 4.45405L67.5 0Z" fill="#0C081E"/>
<path d="M87.5 0L89.713 4.45405L94.6329 5.18237L91.0807 8.66345L91.9084 13.5676L87.5 11.265L83.0916 13.5676L83.9193 8.66345L80.3671 5.18237L85.287 4.45405L87.5 0Z" fill="#0C081E"/>
</svg>
