<svg width="96" height="15" viewBox="0 0 96 15" fill="none" xmlns="http://www.w3.org/2000/svg">
<path d="M8.28516 0L10.4982 4.45405L15.4181 5.18237L11.8659 8.66345L12.6935 13.5676L8.28516 11.265L3.87677 13.5676L4.70443 8.66345L1.15223 5.18237L6.07214 4.45405L8.28516 0Z" fill="#FED936"/>
<path d="M28.2852 0L30.4982 4.45405L35.4181 5.18237L31.8659 8.66345L32.6935 13.5676L28.2852 11.265L23.8768 13.5676L24.7044 8.66345L21.1522 5.18237L26.0721 4.45405L28.2852 0Z" fill="#FED936"/>
<path d="M48.2852 0L50.4982 4.45405L55.4181 5.18237L51.8659 8.66345L52.6935 13.5676L48.2852 11.265L43.8768 13.5676L44.7044 8.66345L41.1522 5.18237L46.0721 4.45405L48.2852 0Z" fill="#FED936"/>
<path d="M68.2852 0L70.4982 4.45405L75.4181 5.18237L71.8659 8.66345L72.6935 13.5676L68.2852 11.265L63.8768 13.5676L64.7044 8.66345L61.1522 5.18237L66.0721 4.45405L68.2852 0Z" fill="#FED936"/>
<path d="M88.2852 0L90.4982 4.45405L95.4181 5.18237L91.8659 8.66345L92.6935 13.5676L88.2852 11.265L83.8768 13.5676L84.7044 8.66345L81.1522 5.18237L86.0721 4.45405L88.2852 0Z" fill="#FED936"/>
</svg>
