<svg width="95" height="15" viewBox="0 0 95 15" fill="none" xmlns="http://www.w3.org/2000/svg">
<path d="M7.5 1.1237L9.26523 4.67653L9.38144 4.91042L9.63979 4.94866L13.5642 5.52962L10.7308 8.30634L10.5442 8.48913L10.5877 8.74666L11.2479 12.6585L7.73149 10.8218L7.5 10.7009L7.26851 10.8218L3.75211 12.6585L4.4123 8.74666L4.45576 8.48913L4.26923 8.30634L1.43578 5.52962L5.36021 4.94866L5.61856 4.91042L5.73476 4.67653L7.5 1.1237Z" stroke="#FED936"/>
<path d="M27.5 1.1237L29.2652 4.67653L29.3814 4.91042L29.6398 4.94866L33.5642 5.52962L30.7308 8.30634L30.5442 8.48913L30.5877 8.74666L31.2479 12.6585L27.7315 10.8218L27.5 10.7009L27.2685 10.8218L23.7521 12.6585L24.4123 8.74666L24.4558 8.48913L24.2692 8.30634L21.4358 5.52962L25.3602 4.94866L25.6186 4.91042L25.7348 4.67653L27.5 1.1237Z" stroke="#FED936"/>
<path d="M47.5 1.1237L49.2652 4.67653L49.3814 4.91042L49.6398 4.94866L53.5642 5.52962L50.7308 8.30634L50.5442 8.48913L50.5877 8.74666L51.2479 12.6585L47.7315 10.8218L47.5 10.7009L47.2685 10.8218L43.7521 12.6585L44.4123 8.74666L44.4558 8.48913L44.2692 8.30634L41.4358 5.52962L45.3602 4.94866L45.6186 4.91042L45.7348 4.67653L47.5 1.1237Z" stroke="#FED936"/>
<path d="M67.5 1.1237L69.2652 4.67653L69.3814 4.91042L69.6398 4.94866L73.5642 5.52962L70.7308 8.30634L70.5442 8.48913L70.5877 8.74666L71.2479 12.6585L67.7315 10.8218L67.5 10.7009L67.2685 10.8218L63.7521 12.6585L64.4123 8.74666L64.4558 8.48913L64.2692 8.30634L61.4358 5.52962L65.3602 4.94866L65.6186 4.91042L65.7348 4.67653L67.5 1.1237Z" stroke="#FED936"/>
<path d="M87.5 1.1237L89.2652 4.67653L89.3814 4.91042L89.6398 4.94866L93.5642 5.52962L90.7308 8.30634L90.5442 8.48913L90.5877 8.74666L91.2479 12.6585L87.7315 10.8218L87.5 10.7009L87.2685 10.8218L83.7521 12.6585L84.4123 8.74666L84.4558 8.48913L84.2692 8.30634L81.4358 5.52962L85.3602 4.94866L85.6186 4.91042L85.7348 4.67653L87.5 1.1237Z" stroke="#FED936"/>
</svg>
