<?xml version="1.0" encoding="UTF-8"?>
<svg xmlns="http://www.w3.org/2000/svg" width="1548" height="370" viewBox="0 0 1548 370" fill="none">
  <path d="M1.43159 60.1811L7.37499 3.21676L229.792 12.5231L264.381 23.5782L265.354 14.2478L317.327 15.699L421.524 39.9738L412.805 114.023L444.387 115.829L454.122 22.5254L505.552 24.4165L609.258 48.64L602.751 111.006L643.484 29.8721L708.715 32.7067L812.421 56.9302L837.023 139.917L847.628 38.2648L902.987 40.5657L1006.69 64.7893L1039.12 110.864L1045.83 46.5337L1100.21 48.7322L1156.89 62.093L1158.02 51.2894L1209.94 53.2317L1302.45 75.2946L1323.11 58.0898L1407.11 61.8892L1510.81 86.1127L1400.85 169.455L1502.14 345.33L1428.01 342.064L1324.31 317.841L1294.15 259.592L1286.26 335.217L1234.88 332.835L1177.7 319.423L1176.52 330.717L1122.69 328.079L1019.42 304.398L985.883 254.732L978.863 322.008L924.538 319.319L886.747 310.412L888.924 318.085L828.655 315.272L724.898 291.54L716.003 257.848L700.677 257.242L674.467 308.617L619.6 306.367L583.23 298.105L582.564 304.488L531.185 302.106L427.428 278.374L436.702 189.49L405.999 188.769L394.83 295.822L342.96 293.389L238.711 269.605L257.361 90.855L242.527 90.3001L221.827 288.693L170.939 286.362L66.2512 262.036L85.3111 79.3575L1.43159 60.1811Z" fill="#F9F9F9"></path>
  <path d="M86.8685 64.1311L121.723 77.6959L105.78 83.9753L1.41653 60.3254M66.691 262.579L170.982 286.367L221.836 288.609M117.087 264.861L221.739 288.684L242.527 90.3001M229.792 12.5231L7.42114 3.14713L1.41758 60.3153L87.0248 63.9623L66.1889 262.526L117.17 264.776L138.005 66.1341M223.475 69.4484L137.845 65.9081L241.989 90.2439L284.767 92.0191L292.533 82.0476M292.533 82.0476L283.614 29.5562L229.818 12.5258L223.787 70.0732L275.635 82.1365L292.533 82.0476ZM316.871 15.6515L265.467 14.2218L238.711 269.605M316.871 15.6515L306.974 109.113L444.482 115.049L454.189 22.2354L505.552 24.4165M316.871 15.6515L421.528 39.9286L411.814 132.784L307.131 108.656M238.711 269.605L289.929 271.88L301.148 164.751L438.657 170.745L427.441 277.987L478.806 280.268L505.552 24.4165M238.711 269.605L342.867 293.379L393.856 295.635M290.09 271.986L394.8 295.819L409.958 169.494M438.408 170.308L488.201 190.395M505.552 24.4165L609.261 48.6139L602.027 117.88L516.333 282.686M582.539 304.486L583.216 298.012L516.333 282.686M478.599 280.734L582.571 304.422L531.435 302.132L427.42 278.45M516.333 282.686L571.33 285.102L596.943 233.421M516.333 282.686L643.461 29.9815L708.931 32.7292L812.295 56.9219L850.635 187.258L888.976 317.594M888.943 317.907L828.91 315.299M820.781 295.587L924.556 319.321L978.889 321.757M875.155 298.116L978.863 322.008M1100.6 48.7735L1073.78 306.762M1100.6 48.7735L1045.93 46.4658M1100.6 48.7735L1203.29 73.0202L1176.52 330.717M1073.78 306.762L1019.74 304.376L893.809 120.526L875.325 297.998L820.814 295.59L847.646 38.0965L902.788 40.424L1006.69 64.7892L1068.9 153.685M1073.78 306.762L1176.54 330.547L1122.8 328.091L1019.4 304.578M1313.08 77.5229L1209.74 53.5662L1158.01 51.3882L1131.23 309.114M1131.23 309.114L1182.97 311.393M1131.23 309.114L1234.89 332.836L1286.27 335.132M1182.97 311.393L1191.89 225.437L1251.96 178.526L1324.1 317.611M1182.97 311.393L1286.26 335.217L1295.12 249.765L1192.43 225.786M1400.72 169.442L1510.8 86.2404L1407.11 61.8892L1298.07 145.825M1400.72 169.442L1501.65 345.237M1400.72 169.442L1298.07 145.825M1298.07 145.825L1397.96 320.866M1501.65 345.237L1427.91 342.054L1324.1 317.611M1501.65 345.237L1397.96 320.866M1397.96 320.866L1324.1 317.611" stroke="#0C081E" stroke-linecap="round"></path>
  <path d="M1407.11 61.8892L1298.07 145.825L1397.99 320.593L1324.85 317.39L1324.85 317.401L1324.84 317.39L1324.67 317.383L1324.6 316.933L1251.96 178.617L1252.03 178.564L1251.96 178.537L1192.53 225.161L1183.5 311.437L1131.12 309.102L1158.02 51.2894L1210.39 53.2787L1199.47 158.372L1324.1 58.1922L1324.02 58.4364L1407.11 61.8892Z" fill="#F9F9F9"></path>
  <path fill-rule="evenodd" clip-rule="evenodd" d="M1073.75 307.087L1073.48 306.811L1019.69 304.426L893.842 121.282L893.441 122.241L875.137 297.978L820.781 295.587L820.831 295.432L847.583 38.6993L902.567 41.0411L902.57 41.0186L902.585 41.0419L902.936 41.0568L902.89 41.4704L1027.54 217.562L1045.34 46.9793L1100.6 48.7734L1073.75 307.087ZM1073.75 307.087L1073.61 306.817L1073.57 306.815L1073.75 307.087Z" fill="#F9F9F9"></path>
  <path fill-rule="evenodd" clip-rule="evenodd" d="M643.034 29.9369L516.333 282.686L571.319 285.106L596.92 233.509L710.433 238.326L710.443 238.332L724.86 291.4L724.869 291.537L724.898 291.54L785.182 294.215L708.224 32.6555L643.034 29.9369ZM696.415 185.756L669.622 85.7547L621.717 182.483L623.059 183.29L696.366 186.472L696.361 186.457L696.415 185.756Z" fill="#F9F9F9"></path>
  <path d="M7.37499 3.21676L7.41283 3.22841L7.41363 3.22079L7.43109 3.23402L229.792 12.5231L223.811 69.8523L138 66.1935L137.742 66.8996L116.99 264.762L66.691 262.579L66.1753 262.525L86.9929 64.1369L86.8779 64.132L86.507 63.8478L1.43159 60.1811L7.41114 3.24445L7.37499 3.21676Z" fill="#F9F9F9"></path>
  <path d="M478.858 280.265L505.552 24.4165L454.173 22.0343L444.49 114.847L307.101 108.951L316.836 15.6478L265.354 14.2478L238.711 269.605L290.09 271.987L301.311 164.443L438.649 170.829L427.479 277.883L478.858 280.265Z" fill="#F9F9F9"></path>
  <path d="M1073.75 307.087L1073.48 306.811L1019.69 304.426L893.842 121.282L893.441 122.241L875.137 297.978L820.781 295.587L820.831 295.432L847.583 38.6993L902.567 41.0411L902.57 41.0186L902.585 41.0419L902.936 41.0568L902.89 41.4704L1027.54 217.562L1045.34 46.9793L1100.6 48.7734L1073.75 307.087ZM1073.75 307.087L1073.61 306.817L1073.57 306.815L1073.75 307.087ZM1298.07 145.825L1407.11 61.8892L1324.02 58.4364L1324.1 58.1922L1199.47 158.372L1210.39 53.2787L1158.02 51.2894L1131.12 309.102L1183.5 311.437L1192.53 225.161L1251.96 178.537L1252.03 178.564L1251.96 178.617L1324.6 316.933L1324.67 317.383L1324.84 317.39L1324.85 317.401L1324.85 317.39L1397.99 320.593L1298.07 145.825ZM516.333 282.686L643.034 29.9369L708.224 32.6555L785.182 294.215L724.898 291.54L724.869 291.536L724.86 291.4L710.443 238.332L710.433 238.326L596.92 233.509L571.319 285.106L516.333 282.686ZM669.622 85.7547L696.416 185.756L696.361 186.457L696.366 186.472L623.059 183.29L621.717 182.483L669.622 85.7547ZM7.41283 3.2284L7.37499 3.21675L7.41114 3.24445L1.43159 60.1811L86.507 63.8478L86.8779 64.132L86.9929 64.1369L66.1753 262.525L66.691 262.579L116.99 264.762L137.742 66.8996L138 66.1935L223.811 69.8523L229.792 12.5231L7.43109 3.23402L7.41363 3.22079L7.41283 3.2284ZM505.552 24.4165L478.858 280.265L427.479 277.883L438.649 170.829L301.311 164.443L290.09 271.987L238.711 269.605L265.354 14.2478L316.836 15.6478L307.101 108.951L444.49 114.847L454.173 22.0343L505.552 24.4165Z" stroke="#0C081E"></path>
</svg>
