<svg xmlns="http://www.w3.org/2000/svg" width="10" height="10" viewBox="0 0 10 10" fill="none">
  <g clip-path="url(#clip0_3421_17306)">
    <path d="M2.1716 7.3284C0.609468 5.76628 0.609468 3.23372 2.1716 1.6716C3.73372 0.109468 6.26628 0.109468 7.8284 1.6716C9.39053 3.23372 9.39053 5.76628 7.8284 7.3284C6.26628 8.89053 3.73372 8.89053 2.1716 7.3284ZM2.73728 6.76272C3.33739 7.36284 4.15131 7.69997 5 7.69997C5.84869 7.69997 6.66261 7.36284 7.26272 6.76272C7.86284 6.16261 8.19997 5.34869 8.19997 4.5C8.19997 3.65131 7.86284 2.83739 7.26272 2.23728C6.66261 1.63717 5.84869 1.30003 5 1.30003C4.15131 1.30003 3.33739 1.63717 2.73728 2.23728C2.13717 2.83739 1.80003 3.65131 1.80003 4.5C1.80003 5.34869 2.13716 6.16261 2.73728 6.76272ZM4.54664 5.34937L4.54664 2.94919L5.34651 2.94919L5.34651 4.5495L6.6263 4.54921L6.62658 5.34937L4.54664 5.34937Z" fill="#0C081E"/>
  </g>
  <defs>
    <clipPath id="clip0_3421_17306">
      <rect width="10" height="10" fill="white"/>
    </clipPath>
  </defs>
</svg>