<?xml version="1.0" encoding="UTF-8"?>
<svg xmlns="http://www.w3.org/2000/svg" width="60" height="50" viewBox="0 0 60 50" fill="none">
  <path d="M59.8169 18.996L47.6495 6.82863L41.5655 0.744648C41.5075 0.686587 41.4386 0.640529 41.3628 0.609107C41.287 0.577685 41.2057 0.561516 41.1237 0.561523H18.8763C18.7942 0.561516 18.713 0.577685 18.6372 0.609107C18.5613 0.640529 18.4925 0.686587 18.4344 0.744648L0.183103 18.996C0.125054 19.054 0.0790059 19.1229 0.0475883 19.1987C0.0161708 19.2745 0 19.3558 0 19.4379C0 19.52 0.0161708 19.6012 0.0475883 19.677C0.0790059 19.7529 0.125054 19.8218 0.183103 19.8798L29.5581 49.2548C29.6161 49.3128 29.685 49.3589 29.7608 49.3903C29.8367 49.4217 29.9179 49.4379 30 49.4379C30.0821 49.4379 30.1633 49.4217 30.2392 49.3903C30.315 49.3589 30.3839 49.3128 30.4419 49.2548L59.8169 19.8798C59.8749 19.8218 59.921 19.7529 59.9524 19.677C59.9838 19.6012 60 19.5199 60 19.4379C60 19.3558 59.9838 19.2745 59.9524 19.1987C59.921 19.1229 59.8749 19.054 59.8169 18.996ZM45.6988 6.64552H30C29.9179 6.64551 29.8366 6.66169 29.7608 6.69311C29.685 6.72453 29.6161 6.77059 29.5581 6.82865L17.8323 18.5544L14.414 15.1361L27.7386 1.81154H40.8649L45.6988 6.64552ZM35.8252 13.9795L41.2836 19.4379L29.9999 30.722L18.7161 19.4382L24.1748 13.9795L35.8252 13.9795ZM19.1351 1.81154H25.971L13.0884 14.6942C13.0303 14.7522 12.9843 14.8211 12.9528 14.897C12.9214 14.9728 12.9053 15.054 12.9053 15.1361C12.9053 15.2182 12.9214 15.2995 12.9528 15.3753C12.9843 15.4511 13.0303 15.52 13.0884 15.578L29.1161 31.6058L25.6982 35.0238L5.81053 15.1361L19.1351 1.81154ZM1.50877 19.4379L4.92673 16.0199L25.2563 36.3495C25.3143 36.4076 25.3832 36.4536 25.4591 36.485C25.5349 36.5164 25.6161 36.5326 25.6982 36.5326C25.7803 36.5326 25.8616 36.5164 25.9374 36.485C26.0132 36.4536 26.0821 36.4076 26.1401 36.3495L42.1673 20.3217L45.5859 23.7403L25.6982 43.6273L1.50877 19.4379ZM30 47.9291L26.582 44.5111L46.9116 24.1821C46.9697 24.1241 47.0157 24.0552 47.0471 23.9794C47.0785 23.9036 47.0947 23.8223 47.0947 23.7403C47.0947 23.6582 47.0785 23.5769 47.0471 23.5011C47.0157 23.4253 46.9697 23.3564 46.9116 23.2984L37.5928 13.9795H44.4287L54.1894 23.7403L30 47.9291ZM55.0732 22.8564L45.1294 12.9126C45.0713 12.8546 45.0025 12.8085 44.9266 12.7771C44.8508 12.7457 44.7696 12.7295 44.6875 12.7295H25.4248L30.2588 7.89551H46.9488L58.4912 19.4379L55.0732 22.8564Z" fill="#0C081E"></path>
</svg>
