<svg width="767" height="438" viewBox="0 0 767 438" fill="none" xmlns="http://www.w3.org/2000/svg">
<path fill-rule="evenodd" clip-rule="evenodd" d="M0 121.199L104.05 96.6039L211.827 149.72L231.293 181.969L257.985 59.9537L348.533 38.5926L391.03 51.6803L396.473 27.2303L511.687 0L663.483 33.0891L767 265.635L687.474 293.202L576.477 247.001L552.084 340.273L461.629 371.508L419.864 346.599L409.169 389.646L268.458 438L159.39 349.815L0 121.199ZM420.3 344.829L461.17 369.204L535.973 66.5267L397.844 29.0351L392.691 52.1779L484.696 78.8329L420.3 344.829ZM400.745 28.0131L511.698 1.78976L659.078 33.9161L537.026 65.0034L400.745 28.0131ZM537.731 66.6237L462.951 369.208L550.648 338.924L575.055 245.601L575.057 245.592L606.422 120.502L687.951 291.192L764.644 264.607L662.379 34.875L537.731 66.6237ZM685.74 290.59L606.93 125.591L576.916 245.293L685.74 290.59ZM418.468 345.042L482.476 80.6495L385.427 105.867L330.286 342.221L230.934 184.735L210.811 151.396L95.8137 180.657L268.974 435.979L407.72 388.301L418.467 345.047L418.468 345.042ZM264.624 432.66L93.7859 180.763L4.60591 124.767L160.665 348.606L264.624 432.66ZM3.67369 122.123L103.84 98.4458L208.714 150.13L94.5449 179.181L3.67369 122.123ZM384.746 104.242L480.365 79.396L391.428 53.6297L391.414 53.6256L348.469 40.3999L261.805 60.8446L384.746 104.242ZM259.346 61.8278L232.595 184.113L329.543 337.789L383.685 105.719L259.346 61.8278Z" fill="#403C52"/>
</svg>
