<svg width="748" height="416" viewBox="0 0 748 416" fill="none" xmlns="http://www.w3.org/2000/svg">
<path fill-rule="evenodd" clip-rule="evenodd" d="M0 83.3936L104.585 66.5768L207.271 126.793L224.189 160.049L259.332 41.4376L350.343 26.8452L391.397 42.8282L398.533 19.0671L514.34 0.449878L661.961 44.0474L747.543 281.204L666.978 302.719L560.615 249.102L529.808 339.485L438.179 363.839L398.698 336.231L385.036 377.985L242.516 415.636L141.076 320.684L0 83.3936ZM399.256 334.513L437.891 361.529L533.558 67.9126L399.758 20.9484L393.003 43.4393L482.004 76.3832L399.256 334.513ZM402.697 20.1474L514.222 2.21866L657.549 44.5477L534.708 66.4835L402.697 20.1474ZM535.288 68.1348L439.651 361.661L528.486 338.05L559.31 247.617L559.313 247.608L599.294 126.295L667.593 300.768L745.289 280.019L660.742 45.7323L535.288 68.1348ZM665.452 300.014L599.431 131.359L561.171 247.447L665.452 300.014ZM397.431 334.592L479.679 78.0182L381.967 95.9526L310.495 325.467L223.635 162.756L206.146 128.377L90.4072 149.015L243.172 413.677L383.701 376.552L397.429 334.597L397.431 334.592ZM239.112 410.085L88.3959 148.974L4.295 87.2494L142.423 319.581L239.112 410.085ZM3.56381 84.5704L104.246 68.3812L204.165 126.975L89.2596 147.465L3.56381 84.5704ZM381.41 94.2985L477.684 76.6281L391.65 44.7826L391.637 44.7776L350.151 28.6258L263.043 42.5923L381.41 94.2985ZM260.542 43.3867L225.322 162.261L310.08 321.035L380.256 95.6813L260.542 43.3867Z" fill="#403C52"/>
</svg>
