<?xml version="1.0" encoding="UTF-8"?>
<svg xmlns="http://www.w3.org/2000/svg" width="184" height="23" viewBox="0 0 184 23" fill="none">
  <path d="M22.7326 0L15.6887 16.8557L8.6448 0H0L9.60534 23H21.7721L31.3774 0H22.7326Z" fill="#F9F9F9"></path>
  <path d="M61.6395 0V23H82.7713V15.7714H69.9642V0H61.6395Z" fill="#F9F9F9"></path>
  <path d="M110.102 0L102.417 9.85714L94.7332 0H86.4086V23H94.7332V12.4857L102.417 22.3429L110.102 12.4857V23H118.426V0H110.102Z" fill="#F9F9F9"></path>
  <path d="M49.4503 23L42.4064 6.14428L35.3625 23H26.7177L36.323 0H48.4898L58.0951 23H49.4503Z" fill="#F9F9F9"></path>
  <path d="M143.75 23L136.706 6.14428L129.662 23H121.018L130.623 0H142.79L152.395 23H143.75Z" fill="#F9F9F9"></path>
  <path d="M159.317 11.8108L154.727 0.103604H164.213L166.967 7.87387H172.372L175.024 0.103604H184L179.614 12.1216L184 22.8964H175.024L171.863 15.1261H167.273L164.213 22.8964H154.727L159.317 11.8108Z" fill="#F9F9F9"></path>
</svg>
