<?xml version="1.0" encoding="UTF-8"?>
<svg xmlns="http://www.w3.org/2000/svg" width="153" height="45" viewBox="0 0 153 45" fill="none">
  <rect width="153" height="45" rx="3" fill="#FED936"></rect>
  <path d="M74.4828 13.3139L75.6107 15.7036C75.6891 15.8698 75.8407 15.985 76.0162 16.0116L78.5383 16.3949C78.9801 16.462 79.1564 17.0296 78.8368 17.3552L77.0118 19.2153C76.885 19.3447 76.827 19.5312 76.857 19.7137L77.2878 22.3403C77.3633 22.8003 76.9015 23.1511 76.5064 22.9341L74.2506 21.694C74.0938 21.6079 73.9062 21.6079 73.7494 21.694L71.4936 22.9341C71.0985 23.1513 70.6367 22.8003 70.7122 22.3403L71.143 19.7137C71.173 19.5312 71.115 19.3447 70.9882 19.2153L69.1632 17.3552C68.8436 17.0294 69.0199 16.4618 69.4617 16.3949L71.9838 16.0116C72.1593 15.985 72.3109 15.8698 72.3893 15.7036L73.5172 13.3139C73.7145 12.8954 74.2853 12.8954 74.4828 13.3139Z" fill="#0C081E"></path>
  <path d="M87.4828 13.3139L88.6107 15.7036C88.6891 15.8698 88.8407 15.985 89.0162 16.0116L91.5383 16.3949C91.9801 16.462 92.1564 17.0296 91.8368 17.3552L90.0118 19.2153C89.885 19.3447 89.827 19.5312 89.857 19.7137L90.2878 22.3403C90.3633 22.8003 89.9015 23.1511 89.5064 22.9341L87.2506 21.694C87.0938 21.6079 86.9062 21.6079 86.7494 21.694L84.4936 22.9341C84.0985 23.1513 83.6367 22.8003 83.7122 22.3403L84.143 19.7137C84.173 19.5312 84.115 19.3447 83.9882 19.2153L82.1632 17.3552C81.8436 17.0294 82.0199 16.4618 82.4617 16.3949L84.9838 16.0116C85.1593 15.985 85.3109 15.8698 85.3893 15.7036L86.5172 13.3139C86.7145 12.8954 87.2853 12.8954 87.4828 13.3139Z" fill="#0C081E"></path>
  <path d="M100.483 13.3139L101.611 15.7036C101.689 15.8698 101.841 15.985 102.016 16.0116L104.538 16.3949C104.98 16.462 105.156 17.0296 104.837 17.3552L103.012 19.2153C102.885 19.3447 102.827 19.5312 102.857 19.7137L103.288 22.3403C103.363 22.8003 102.901 23.1511 102.506 22.9341L100.251 21.694C100.094 21.6079 99.9062 21.6079 99.7494 21.694L97.4936 22.9341C97.0985 23.1513 96.6367 22.8003 96.7122 22.3403L97.143 19.7137C97.173 19.5312 97.115 19.3447 96.9882 19.2153L95.1632 17.3552C94.8436 17.0294 95.0199 16.4618 95.4617 16.3949L97.9838 16.0116C98.1593 15.985 98.3109 15.8698 98.3893 15.7036L99.5172 13.3139C99.7145 12.8954 100.285 12.8954 100.483 13.3139Z" fill="#0C081E"></path>
  <path d="M113.483 13.3139L114.611 15.7036C114.689 15.8698 114.841 15.985 115.016 16.0116L117.538 16.3949C117.98 16.462 118.156 17.0296 117.837 17.3552L116.012 19.2153C115.885 19.3447 115.827 19.5312 115.857 19.7137L116.288 22.3403C116.363 22.8003 115.901 23.1511 115.506 22.9341L113.251 21.694C113.094 21.6079 112.906 21.6079 112.749 21.694L110.494 22.9341C110.099 23.1513 109.637 22.8003 109.712 22.3403L110.143 19.7137C110.173 19.5312 110.115 19.3447 109.988 19.2153L108.163 17.3552C107.844 17.0294 108.02 16.4618 108.462 16.3949L110.984 16.0116C111.159 15.985 111.311 15.8698 111.389 15.7036L112.517 13.3139C112.715 12.8954 113.285 12.8954 113.483 13.3139Z" fill="#0C081E"></path>
  <path d="M126.483 13.3139L127.611 15.7036C127.689 15.8698 127.841 15.985 128.016 16.0116L130.538 16.3949C130.98 16.462 131.156 17.0296 130.837 17.3552L129.012 19.2153C128.885 19.3447 128.827 19.5312 128.857 19.7137L129.288 22.3403C129.363 22.8003 128.901 23.1511 128.506 22.9341L126.251 21.694C126.094 21.6079 125.906 21.6079 125.749 21.694L123.494 22.9341C123.099 23.1513 122.637 22.8003 122.712 22.3403L123.143 19.7137C123.173 19.5312 123.115 19.3447 122.988 19.2153L121.163 17.3552C120.844 17.0294 121.02 16.4618 121.462 16.3949L123.984 16.0116C124.159 15.985 124.311 15.8698 124.389 15.7036L125.517 13.3139C125.715 12.8954 126.285 12.8954 126.483 13.3139Z" fill="#0C081E"></path>
  <path d="M43.1562 28.7109H43.8984L45.6328 32.9922L47.375 28.7109H48.0781L45.8984 34H45.3594L43.1562 28.7109ZM48.5156 32.0234C48.5156 32.8984 48.9531 33.5312 49.6484 33.5312C50.3281 33.5312 50.7266 32.9297 50.75 32.0938V32.0234C50.75 31.1484 50.3438 30.5625 49.6484 30.5625C48.9531 30.5625 48.5156 31.1484 48.5156 32.0234ZM47.8438 32.0234C47.8438 30.8203 48.5625 30.0156 49.5625 30.0156C50.0938 30.0156 50.5 30.3047 50.7656 30.7344L50.8281 30.0938H51.375V34H50.8281L50.7578 33.3359C50.4922 33.7734 50.0859 34.0781 49.5625 34.0781C48.5625 34.0781 47.8438 33.2266 47.8438 32.0234ZM52.4688 34V28.7109H53.0938V34H52.4688ZM54.1875 34V30.0938H54.7344L54.7891 30.7031C55.0234 30.3281 55.3906 30.0156 55.9062 30.0156C56.4688 30.0156 56.8359 30.2891 56.9922 30.9219C57.2578 30.4531 57.7109 30.0156 58.3281 30.0156C59.0938 30.0156 59.6562 30.5234 59.6562 31.7344V34H59.0312V31.8125V31.7344C59.0312 31.1016 58.8438 30.5625 58.1797 30.5625C57.5391 30.5625 57.25 31.3047 57.2344 31.7891V34H56.6094V31.7344C56.6094 31.1094 56.4141 30.5625 55.7578 30.5625C55.1172 30.5625 54.8281 31.3047 54.8125 31.7891V34H54.1875ZM61.1094 32.0234C61.1094 32.8984 61.5469 33.5312 62.2422 33.5312C62.9219 33.5312 63.3203 32.9297 63.3438 32.0938V32.0234C63.3438 31.1484 62.9375 30.5625 62.2422 30.5625C61.5469 30.5625 61.1094 31.1484 61.1094 32.0234ZM60.4375 32.0234C60.4375 30.8203 61.1562 30.0156 62.1562 30.0156C62.6875 30.0156 63.0938 30.3047 63.3594 30.7344L63.4219 30.0938H63.9688V34H63.4219L63.3516 33.3359C63.0859 33.7734 62.6797 34.0781 62.1562 34.0781C61.1562 34.0781 60.4375 33.2266 60.4375 32.0234ZM64.75 34L66.0703 32.0391L64.8125 30.0938H65.5078L66.5078 31.6641L67.4297 30.0938H68.125L66.8672 32.0391L68.1875 34H67.4062L66.4531 32.4922L65.4844 34H64.75ZM71 34V30.0938H71.5469L71.6016 30.6875C71.8203 30.3438 72.1719 30.0938 72.7188 30.0938H72.875V30.6406H72.7188C71.8594 30.6406 71.6406 31.2812 71.625 31.9531V34H71ZM73.8594 32.0234C73.8594 32.8984 74.2969 33.5312 74.9922 33.5312C75.6719 33.5312 76.0703 32.9297 76.0938 32.0938V32.0234C76.0938 31.1484 75.6875 30.5625 74.9922 30.5625C74.2969 30.5625 73.8594 31.1484 73.8594 32.0234ZM73.1875 32.0234C73.1875 30.8203 73.9062 30.0156 74.9062 30.0156C75.4375 30.0156 75.8438 30.3047 76.1094 30.7344L76.1719 30.0938H76.7188V34H76.1719L76.1016 33.3359C75.8359 33.7734 75.4297 34.0781 74.9062 34.0781C73.9062 34.0781 73.1875 33.2266 73.1875 32.0234ZM77.4219 30.6797V30.0938H78.125V29.1562H78.75V30.0938H79.7891V30.6797H78.75V32.3828C78.75 32.9609 78.8203 33.3672 79.2109 33.3672H79.7891V34H79.1875C78.5 34 78.125 33.3984 78.125 32.6172V30.6797H77.4219ZM80.4922 34V30.0938H81.1172V34H80.4922ZM80.3594 29.0781C80.3594 28.8047 80.5547 28.6328 80.8047 28.6328C81.0547 28.6328 81.25 28.8047 81.25 29.0781C81.25 29.3516 81.0547 29.5234 80.8047 29.5234C80.5547 29.5234 80.3594 29.3516 80.3594 29.0781ZM82.2109 34V30.0938H82.7578L82.8203 30.75C83.0781 30.3516 83.4844 30.0156 84.0859 30.0156C85.0703 30.0156 85.6484 30.6797 85.6484 31.7344V34H85.0234V31.7344C85.0156 31.2344 84.7656 30.5625 83.9375 30.5625C83.1875 30.5625 82.8516 31.3047 82.8359 31.7891V34H82.2109ZM87.1016 31.8516C87.1016 32.5859 87.5391 33.1406 88.2344 33.1406C88.9375 33.1406 89.2422 32.4766 89.2578 31.8984V31.8516C89.2578 31.2656 89 30.5625 88.2344 30.5625C87.5781 30.5625 87.1016 31.1172 87.1016 31.8516ZM86.4297 31.8516C86.4297 30.6641 87.1875 30.0156 88.1484 30.0156C88.6328 30.0156 89.0234 30.2812 89.2812 30.6719L89.3359 30.0938H89.8828V33.2734C89.8828 34.6641 89.2656 35.4609 88.0781 35.4609C87.0391 35.4609 86.6719 34.8828 86.6719 34.4219H87.3359C87.3359 34.6562 87.5938 34.9141 88.0781 34.9141C88.8203 34.9141 89.2578 34.3672 89.2578 33.2188V33.0469C89 33.4297 88.6094 33.6875 88.1484 33.6875C87.1484 33.6875 86.4297 32.9922 86.4297 31.8516ZM93.4375 32.0234C93.4375 32.8984 93.9062 33.5312 94.6484 33.5312C95.3906 33.5312 95.8594 32.8984 95.8594 32.0234C95.8594 31.1484 95.3906 30.5625 94.6484 30.5625C93.9062 30.5625 93.4375 31.1484 93.4375 32.0234ZM92.7734 32.0234C92.7734 30.8203 93.5156 30.0156 94.6484 30.0156C95.7812 30.0156 96.5234 30.8203 96.5234 32.0234C96.5234 33.2266 95.7812 34.0781 94.6484 34.0781C93.5156 34.0781 92.7734 33.2266 92.7734 32.0234ZM97.3828 34V30.0938H97.9297L97.9922 30.75C98.25 30.3516 98.6562 30.0156 99.2578 30.0156C100.242 30.0156 100.82 30.6797 100.82 31.7344V34H100.195V31.7344C100.188 31.2344 99.9375 30.5625 99.1094 30.5625C98.3594 30.5625 98.0234 31.3047 98.0078 31.7891V34H97.3828ZM103.633 31.3125C103.633 29.5312 104.805 28.6328 106.211 28.6328C107.617 28.6328 108.391 29.4609 108.391 30.3281H107.633C107.633 29.8594 107.164 29.2188 106.219 29.2188C105.273 29.2188 104.344 29.9375 104.344 31.3125C104.344 32.6875 105.234 33.4922 106.219 33.4922C107.188 33.4922 107.812 32.8281 107.914 31.9297H106.094V31.3047H108.633V31.6797C108.633 33.1094 107.656 34.0781 106.211 34.0781C104.766 34.0781 103.633 33.0938 103.633 31.3125ZM109.766 32.0234C109.766 32.8984 110.234 33.5312 110.977 33.5312C111.719 33.5312 112.188 32.8984 112.188 32.0234C112.188 31.1484 111.719 30.5625 110.977 30.5625C110.234 30.5625 109.766 31.1484 109.766 32.0234ZM109.102 32.0234C109.102 30.8203 109.844 30.0156 110.977 30.0156C112.109 30.0156 112.852 30.8203 112.852 32.0234C112.852 33.2266 112.109 34.0781 110.977 34.0781C109.844 34.0781 109.102 33.2266 109.102 32.0234ZM114.141 32.0234C114.141 32.8984 114.609 33.5312 115.352 33.5312C116.094 33.5312 116.562 32.8984 116.562 32.0234C116.562 31.1484 116.094 30.5625 115.352 30.5625C114.609 30.5625 114.141 31.1484 114.141 32.0234ZM113.477 32.0234C113.477 30.8203 114.219 30.0156 115.352 30.0156C116.484 30.0156 117.227 30.8203 117.227 32.0234C117.227 33.2266 116.484 34.0781 115.352 34.0781C114.219 34.0781 113.477 33.2266 113.477 32.0234ZM118.523 32.0234C118.523 32.8984 118.961 33.5312 119.656 33.5312C120.352 33.5312 120.758 32.8984 120.758 32.0234C120.758 31.1484 120.352 30.5625 119.656 30.5625C118.961 30.5625 118.523 31.1484 118.523 32.0234ZM117.852 32.0234C117.852 30.8203 118.57 30.0156 119.57 30.0156C120.086 30.0156 120.492 30.2969 120.758 30.7031V28.7109H121.383V34H120.836L120.766 33.3359C120.5 33.7734 120.094 34.0781 119.57 34.0781C118.57 34.0781 117.852 33.2266 117.852 32.0234ZM122.477 34V28.7109H125.68V29.3359H123.141V31.0469H125.367V31.6719H123.141V34H122.477ZM126.383 34V30.0938H127.008V34H126.383ZM126.25 29.0781C126.25 28.8047 126.445 28.6328 126.695 28.6328C126.945 28.6328 127.141 28.8047 127.141 29.0781C127.141 29.3516 126.945 29.5234 126.695 29.5234C126.445 29.5234 126.25 29.3516 126.25 29.0781ZM128.102 34V30.0938H128.648L128.703 30.6875C128.922 30.3438 129.273 30.0938 129.82 30.0938H129.977V30.6406H129.82C128.961 30.6406 128.742 31.2812 128.727 31.9531V34H128.102ZM130.68 34V30.0938H131.227L131.281 30.7031C131.516 30.3281 131.883 30.0156 132.398 30.0156C132.961 30.0156 133.328 30.2891 133.484 30.9219C133.75 30.4531 134.203 30.0156 134.82 30.0156C135.586 30.0156 136.148 30.5234 136.148 31.7344V34H135.523V31.8125V31.7344C135.523 31.1016 135.336 30.5625 134.672 30.5625C134.031 30.5625 133.742 31.3047 133.727 31.7891V34H133.102V31.7344C133.102 31.1094 132.906 30.5625 132.25 30.5625C131.609 30.5625 131.32 31.3047 131.305 31.7891V34H130.68ZM136.93 32.7266H137.594C137.594 33.1797 137.992 33.5312 138.57 33.5312C139.039 33.5312 139.383 33.3047 139.383 32.9453C139.383 32.0391 137.047 32.6328 137.047 31.1484C137.047 30.4609 137.641 30.0156 138.445 30.0156C139.539 30.0156 140 30.7109 140 31.3672H139.336C139.336 30.9141 138.977 30.5625 138.445 30.5625C138.023 30.5625 137.719 30.7891 137.719 31.1484C137.719 32.1328 140.055 31.4609 140.055 32.9453C140.055 33.6328 139.422 34.0781 138.57 34.0781C137.422 34.0781 136.93 33.3828 136.93 32.7266Z" fill="#0C081E"></path>
  <path d="M43.6836 20.7441H44.8457C44.8457 21.4414 45.5977 22.1797 46.541 22.1797C47.8398 22.1797 48.6602 21.209 48.6602 19.9238C48.6602 18.6387 47.7715 17.8047 46.541 17.8047C45.6934 17.8047 45.0098 18.4199 44.873 19.2129H43.9844L44.3945 13.7441H49.043V14.8379H45.3242L45.1191 17.4766C45.543 17.0938 46.1309 16.8477 46.9102 16.8477C48.4277 16.8477 49.8359 18.0645 49.8359 19.9238C49.8359 21.7832 48.5234 23.1367 46.5547 23.1367C44.6816 23.1367 43.6836 21.7695 43.6836 20.7441ZM51.5723 22.2754C51.5723 21.7559 51.9551 21.4141 52.4336 21.4141C52.9121 21.4141 53.2949 21.7559 53.2949 22.2754C53.2949 22.8086 52.9121 23.1367 52.4336 23.1367C51.9551 23.1367 51.5723 22.8086 51.5723 22.2754ZM56.207 18.2969C56.207 20.9766 57.0273 22.1797 58.3262 22.1797C59.625 22.1797 60.4453 20.9766 60.4453 18.2969C60.4453 15.6172 59.5566 14.5645 58.3262 14.5645C57.0957 14.5645 56.207 15.6172 56.207 18.2969ZM55.0312 18.2969C55.0312 14.9062 56.4258 13.6074 58.3125 13.6074C60.1992 13.6074 61.6211 14.9062 61.6211 18.2969C61.6211 21.6875 60.2949 23.1367 58.3125 23.1367C56.3438 23.1367 55.0312 21.6875 55.0312 18.2969Z" fill="#0C081E"></path>
  <path d="M6 5H25C30.5228 5 35 9.47715 35 15V39H16C10.4772 39 6 34.5228 6 29V5Z" fill="#0C081E"></path>
  <path d="M15.6919 18.1661C15.6919 16.4606 17.6139 16.651 17.6139 16.651H35.0844L35 14L14.9221 14C14.9221 14 13 14.3398 13 16.2718V39H15.6919V29.151H27.2308C28.4227 29.151 28.3847 28.0151 28.3847 28.0151V25.7416H15.6919V18.1661Z" fill="#F9F9F9"></path>
</svg>
